<?xml version="1.0" encoding="utf-8"?>
<!-- Generator: Adobe Illustrator 16.0.0, SVG Export Plug-In . SVG Version: 6.00 Build 0)  -->
<!DOCTYPE svg PUBLIC "-//W3C//DTD SVG 1.1//EN" "http://www.w3.org/Graphics/SVG/1.1/DTD/svg11.dtd">
<svg version="1.1" id="Calque_1" xmlns="http://www.w3.org/2000/svg" xmlns:xlink="http://www.w3.org/1999/xlink" x="0px" y="0px"
	 width="23.333px" height="13.5px" viewBox="0 0 23.333 13.5" enable-background="new 0 0 23.333 13.5" xml:space="preserve">
<circle fill="#FFFFFF" stroke="#000000" stroke-miterlimit="10" cx="9.171" cy="6.75" r="6.125"/>
<path d="M9.171,1.24c0,0-0.802,1.531-1.385,1.312c-0.583-0.219-0.656,0.292-0.583,0.51c0.072,0.219-0.266,1.531-0.024,1.896
	c0.243,0.365,0.058,2.624,0.952,2.553c0.895-0.074,1.861,1.111,1.04,3.207c-0.82,2.096,2.698,0.875,3.282-0.875
	c1.074-3.225,1.839-3.336,2.334-3.046c0.494,0.29,0.028-3.335-1.232-4.324C12.291,1.486,9.984,0.132,9.171,1.24z"/>
<path d="M4.275,3.072c0,0,0.74,1.595,1.178,1.449c0.438-0.146,1.385-1.147,0.291,0.01C4.651,5.688,4.119,5.213,4.275,6.325
	c0.157,1.113-0.137,2.134-0.026,2.572c0.11,0.438,0.913,1.311,1.423,1.385c0.511,0.072,0.5,0.871,0.948,1.543
	c0.448,0.674-3.249-0.453-3.573-4.375C2.905,5.742,4.275,3.072,4.275,3.072z"/>
</svg>
