<?xml version="1.0" encoding="utf-8"?>
<!-- Generator: Adobe Illustrator 16.0.0, SVG Export Plug-In . SVG Version: 6.00 Build 0)  -->
<!DOCTYPE svg PUBLIC "-//W3C//DTD SVG 1.1//EN" "http://www.w3.org/Graphics/SVG/1.1/DTD/svg11.dtd">
<svg version="1.1" xmlns="http://www.w3.org/2000/svg" xmlns:xlink="http://www.w3.org/1999/xlink" x="0px" y="0px" width="283px"
	 height="95px" viewBox="0 0 283 95" enable-background="new 0 0 283 95" xml:space="preserve">
<g id="Calque_1" display="none">
</g>
<g id="Calque_2" display="none">
</g>
<g id="logo_final">
	<g>
		<path d="M27.749,5.266h2.339l16.806,44.263h-2.031l-5.726-15.082H18.515l-5.787,15.082h-2.031L27.749,5.266z M38.399,32.599
			l-9.48-24.932l-9.666,24.932H38.399z"/>
		<path d="M51.449,5.266h2.093v42.293h23.455v1.97H51.449V5.266z"/>
		<path d="M82.783,5.266h2.093v42.293h23.455v1.97H82.783V5.266z"/>
		<path d="M114.364,5.266h2.031v44.263h-2.031V5.266z"/>
		<path d="M162.134,5.266h2.093l27.765,40.754V5.266h2.031v44.263h-2.031L164.165,8.836v40.692h-2.031V5.266z"/>
		<path d="M232.559,46.389c-3.038,2.668-7.018,4.002-11.942,4.002c-6.321,0-11.081-2.318-14.282-6.957
			c-2.75-3.98-4.125-9.296-4.125-15.944s1.416-12.045,4.248-16.19c3.241-4.679,8.084-7.018,14.528-7.018
			c4.391,0,8.104,1.211,11.143,3.632c2.175,1.724,3.714,3.838,4.617,6.341l-1.909,0.984c-2.011-6.073-6.751-9.11-14.22-9.11
			c-5.541,0-9.748,2.277-12.62,6.833c-2.423,3.858-3.633,8.701-3.633,14.528c0,5.869,1.17,10.672,3.51,14.405
			c2.79,4.516,6.935,6.771,12.435,6.771c4.433,0,8.023-1.189,10.773-3.57c2.134-1.847,3.55-4.227,4.248-7.141l1.785,0.923
			C236.334,41.875,234.815,44.378,232.559,46.389z"/>
		<path d="M246.041,5.266h27.025v1.97h-24.933V25.52h19.762v1.908h-19.762v20.131h25.549v1.97h-27.642V5.266z"/>
	</g>
	<g>
		<path d="M16.378,62.148h5.713c2.591,0,4.389,0.301,5.394,0.898c1.489,0.871,2.233,2.291,2.233,4.264
			c0,2.34-1.189,3.926-3.567,4.756c3.093,0.6,4.64,2.389,4.64,5.365c0,2.049-0.793,3.566-2.378,4.553
			C27.292,82.662,25.397,83,22.729,83h-6.351V62.148z M22.207,71.777c4.35,0,6.525-1.51,6.525-4.525
			c0-1.758-0.706-2.957-2.117-3.596c-0.928-0.424-2.417-0.637-4.466-0.637h-4.785v8.758H22.207z M22.526,82.129
			c2.281,0,3.847-0.174,4.698-0.521c1.701-0.695,2.552-2.146,2.552-4.35c0-1.895-0.783-3.209-2.349-3.943
			c-1.102-0.523-2.726-0.783-4.872-0.783h-5.191v9.598H22.526z"/>
		<path d="M35.112,62.148v13.107c0,4.893,2.185,7.338,6.554,7.338c2.223,0,3.896-0.676,5.017-2.029
			c1.024-1.258,1.537-3.027,1.537-5.309V62.148h0.957v13.572c0,2.416-0.648,4.303-1.943,5.654c-1.334,1.373-3.19,2.059-5.568,2.059
			c-2.397,0-4.253-0.686-5.568-2.059c-1.295-1.314-1.943-3.199-1.943-5.654V62.148H35.112z"/>
		<path d="M53.643,76.648c0.116,1.818,0.71,3.262,1.783,4.336c1.073,1.072,2.538,1.609,4.394,1.609c1.624,0,2.977-0.406,4.06-1.219
			c1.237-0.889,1.856-2.107,1.856-3.654c0-1.604-0.648-2.813-1.943-3.625c-0.638-0.424-2.03-0.928-4.176-1.508
			c-0.02-0.018-0.145-0.057-0.377-0.115c-2.397-0.676-3.915-1.305-4.553-1.885c-0.986-0.889-1.479-2.039-1.479-3.451
			c0-1.779,0.618-3.141,1.856-4.09c1.141-0.908,2.61-1.361,4.408-1.361c1.953,0,3.519,0.531,4.698,1.594
			c1.218,1.064,1.875,2.572,1.972,4.523h-0.928c-0.039-1.682-0.609-2.996-1.711-3.943c-1.063-0.908-2.427-1.363-4.089-1.363
			c-1.547,0-2.794,0.387-3.741,1.16c-1.025,0.813-1.537,1.973-1.537,3.48c0,1.082,0.425,2.02,1.276,2.813
			c0.638,0.58,2.011,1.141,4.118,1.682c0.039,0.02,0.092,0.035,0.16,0.045c0.067,0.01,0.149,0.033,0.247,0.072
			c2.223,0.6,3.75,1.16,4.582,1.682c1.469,0.947,2.204,2.291,2.204,4.031c0,1.934-0.687,3.441-2.059,4.523
			c-1.257,0.967-2.881,1.449-4.872,1.449c-2.107,0-3.78-0.607-5.017-1.826c-1.257-1.18-1.953-2.832-2.088-4.959H53.643z"/>
		<path d="M70.521,62.148h0.957V83h-0.957V62.148z"/>
		<path d="M76.378,62.148h0.986l13.079,19.197V62.148H91.4V83h-0.957L77.335,63.83V83h-0.957V62.148z"/>
		<path d="M96.156,62.148h12.731v0.928H97.142v8.613h9.309v0.898h-9.309v9.484h12.035V83H96.156V62.148z"/>
		<path d="M112.483,76.648c0.116,1.818,0.71,3.262,1.783,4.336c1.073,1.072,2.538,1.609,4.394,1.609c1.624,0,2.977-0.406,4.06-1.219
			c1.237-0.889,1.856-2.107,1.856-3.654c0-1.604-0.648-2.813-1.943-3.625c-0.638-0.424-2.03-0.928-4.176-1.508
			c-0.02-0.018-0.145-0.057-0.377-0.115c-2.397-0.676-3.915-1.305-4.553-1.885c-0.986-0.889-1.479-2.039-1.479-3.451
			c0-1.779,0.618-3.141,1.856-4.09c1.141-0.908,2.61-1.361,4.408-1.361c1.953,0,3.519,0.531,4.698,1.594
			c1.218,1.064,1.875,2.572,1.972,4.523h-0.928c-0.039-1.682-0.609-2.996-1.711-3.943c-1.063-0.908-2.427-1.363-4.089-1.363
			c-1.547,0-2.794,0.387-3.741,1.16c-1.025,0.813-1.537,1.973-1.537,3.48c0,1.082,0.425,2.02,1.276,2.813
			c0.638,0.58,2.011,1.141,4.118,1.682c0.039,0.02,0.092,0.035,0.16,0.045c0.067,0.01,0.149,0.033,0.247,0.072
			c2.223,0.6,3.75,1.16,4.582,1.682c1.469,0.947,2.204,2.291,2.204,4.031c0,1.934-0.687,3.441-2.059,4.523
			c-1.257,0.967-2.881,1.449-4.872,1.449c-2.107,0-3.78-0.607-5.017-1.826c-1.257-1.18-1.953-2.832-2.088-4.959H112.483z"/>
		<path d="M129.65,76.648c0.116,1.818,0.71,3.262,1.783,4.336c1.073,1.072,2.538,1.609,4.394,1.609c1.624,0,2.977-0.406,4.06-1.219
			c1.237-0.889,1.856-2.107,1.856-3.654c0-1.604-0.648-2.813-1.943-3.625c-0.638-0.424-2.03-0.928-4.176-1.508
			c-0.02-0.018-0.145-0.057-0.377-0.115c-2.397-0.676-3.915-1.305-4.553-1.885c-0.986-0.889-1.479-2.039-1.479-3.451
			c0-1.779,0.618-3.141,1.856-4.09c1.141-0.908,2.61-1.361,4.408-1.361c1.953,0,3.519,0.531,4.698,1.594
			c1.218,1.064,1.875,2.572,1.972,4.523h-0.928c-0.039-1.682-0.609-2.996-1.711-3.943c-1.063-0.908-2.427-1.363-4.089-1.363
			c-1.547,0-2.794,0.387-3.741,1.16c-1.025,0.813-1.537,1.973-1.537,3.48c0,1.082,0.425,2.02,1.276,2.813
			c0.638,0.58,2.011,1.141,4.118,1.682c0.039,0.02,0.092,0.035,0.16,0.045c0.067,0.01,0.149,0.033,0.247,0.072
			c2.223,0.6,3.75,1.16,4.582,1.682c1.469,0.947,2.203,2.291,2.203,4.031c0,1.934-0.686,3.441-2.058,4.523
			c-1.257,0.967-2.881,1.449-4.872,1.449c-2.107,0-3.78-0.607-5.017-1.826c-1.257-1.18-1.953-2.832-2.088-4.959H129.65z"/>
		<path d="M167.321,81.521c-1.432,1.256-3.307,1.885-5.626,1.885c-2.978,0-5.221-1.092-6.729-3.277
			c-1.295-1.875-1.943-4.379-1.943-7.512c0-3.131,0.668-5.674,2.002-7.627c1.526-2.203,3.808-3.305,6.844-3.305
			c2.068,0,3.817,0.57,5.249,1.711c1.024,0.811,1.749,1.807,2.175,2.986l-0.899,0.463c-0.947-2.859-3.18-4.291-6.698-4.291
			c-2.61,0-4.593,1.072-5.945,3.219c-1.141,1.818-1.711,4.1-1.711,6.844c0,2.766,0.551,5.027,1.653,6.787
			c1.314,2.127,3.267,3.189,5.857,3.189c2.088,0,3.779-0.561,5.075-1.682c1.005-0.871,1.672-1.992,2.001-3.365l0.841,0.436
			C169.1,79.395,168.384,80.574,167.321,81.521z"/>
		<path d="M174.977,64.934c1.624-2.166,3.974-3.248,7.048-3.248c3.093,0,5.451,1.072,7.075,3.219
			c1.45,1.953,2.176,4.514,2.176,7.684c0,3.191-0.726,5.742-2.176,7.656c-1.624,2.127-3.982,3.189-7.075,3.189
			c-3.094,0-5.443-1.063-7.048-3.189c-1.449-1.914-2.175-4.465-2.175-7.656C172.802,69.438,173.527,66.885,174.977,64.934z
			 M175.702,79.578c1.431,2.01,3.538,3.016,6.322,3.016c2.803,0,4.92-1.006,6.351-3.016c1.257-1.76,1.885-4.09,1.885-6.99
			c0-2.881-0.638-5.209-1.914-6.988c-1.45-2.029-3.558-3.045-6.321-3.045c-2.766,0-4.872,1.016-6.322,3.045
			c-1.257,1.779-1.885,4.107-1.885,6.988S174.445,77.799,175.702,79.578z"/>
		<path d="M195.974,62.148v13.107c0,4.893,2.185,7.338,6.554,7.338c2.223,0,3.896-0.676,5.017-2.029
			c1.024-1.258,1.537-3.027,1.537-5.309V62.148h0.957v13.572c0,2.416-0.647,4.303-1.943,5.654c-1.334,1.373-3.189,2.059-5.567,2.059
			c-2.397,0-4.254-0.686-5.568-2.059c-1.295-1.314-1.942-3.199-1.942-5.654V62.148H195.974z"/>
		<path d="M214.62,62.148h0.986l13.079,19.197V62.148h0.957V83h-0.957l-13.108-19.17V83h-0.957V62.148z"/>
		<path d="M247.796,81.521c-1.432,1.256-3.307,1.885-5.626,1.885c-2.978,0-5.221-1.092-6.729-3.277
			c-1.295-1.875-1.943-4.379-1.943-7.512c0-3.131,0.668-5.674,2.002-7.627c1.526-2.203,3.808-3.305,6.844-3.305
			c2.068,0,3.817,0.57,5.249,1.711c1.024,0.811,1.749,1.807,2.175,2.986l-0.899,0.463c-0.947-2.859-3.18-4.291-6.698-4.291
			c-2.61,0-4.593,1.072-5.945,3.219c-1.141,1.818-1.711,4.1-1.711,6.844c0,2.766,0.551,5.027,1.653,6.787
			c1.314,2.127,3.267,3.189,5.857,3.189c2.088,0,3.779-0.561,5.075-1.682c1.005-0.871,1.672-1.992,2.001-3.365l0.841,0.436
			C249.574,79.395,248.858,80.574,247.796,81.521z"/>
		<path d="M254.292,62.148h0.957V83h-0.957V62.148z"/>
		<path d="M260.179,62.148h0.985v19.924h11.05V83h-12.035V62.148z"/>
	</g>
	<path fill="#C9920A" d="M143.521,5.266h-0.74l-5.832,1.401l-10.376,32.604c0,3.083,6.604,5.583,12.814,5.583
		c5.531,0,10.119-1.985,11.059-4.597C150.505,40.261,143.521,5.266,143.521,5.266z M138.246,14.242h0.648l7.313,21.575
		c-2.129,0.167-6.109,0.413-8.609,0.413h-8.146L138.246,14.242z"/>
	<line fill="none" stroke="#C9920A" stroke-miterlimit="10" x1="11" y1="56.73" x2="277" y2="56.73"/>
	<g display="none">
		<path display="inline" d="M48.754,45.252l0.119,0.236l-0.414,2.42c0,0-4.248-0.178-6.254-0.178c-4.544,0-8.792,0.59-8.792,0.59
			l-0.177-0.412l0.235-2.303c4.071-0.295,5.252-0.826,5.252-2.242c0-0.766-0.177-1.711-0.531-2.832L36.245,34.1
			c-1.416-0.059-4.484-0.059-6.137-0.059c-2.302,0-5.074,0.295-6.432,0.473l-2.183,6.137c-0.354,1.061-0.531,1.77-0.531,2.301
			c0,1.711,1.063,2.418,3.54,2.418h3.363l0.118,0.236l-0.354,2.537c0,0-4.309-0.412-8.202-0.412c-2.833,0-6.491,0.178-6.491,0.178
			l0.473-2.773c2.184-0.236,3.305-1.24,4.602-4.545l11.507-30.15l3.718-1.004h0.472c0,0,4.956,18.352,9.382,31.627
			C44.033,44.014,45.332,44.957,48.754,45.252z M24.739,31.622h5.192c1.594,0,4.131-0.177,5.487-0.296l-4.661-15.459h-0.413
			L24.739,31.622z"/>
		<path display="inline" d="M52.113,48.32l0.354-2.715c3.068-0.471,4.014-1.592,4.014-4.955l0.059-24.783
			c0-2.537-0.413-3.186-2.184-3.186c-0.708,0-2.006,0.117-2.006,0.117l-0.118-0.236l0.413-2.596c0,0,4.366,0.178,6.608,0.178
			c2.538,0,6.313-0.531,6.313-0.531l-0.236,2.654c-3.953,0.531-3.599,1.535-3.894,5.488c-0.531,7.375-0.708,17.406-0.708,22.775
			c0,4.012,0.59,4.543,5.016,4.543c6.844,0,8.084-1.121,9.381-8.378l2.598-0.295l0.176,0.295c0,0-1.062,5.37-1.711,11.212
			l-0.295,0.354c0,0-10.267-0.531-15.873-0.531C55.595,47.73,52.113,48.32,52.113,48.32z"/>
		<path display="inline" d="M82.025,48.32l0.354-2.715c3.068-0.471,4.014-1.592,4.014-4.955l0.059-24.783
			c0-2.537-0.413-3.186-2.184-3.186c-0.708,0-2.006,0.117-2.006,0.117l-0.118-0.236l0.413-2.596c0,0,4.366,0.178,6.608,0.178
			c2.538,0,6.313-0.531,6.313-0.531l-0.236,2.654c-3.953,0.531-3.599,1.535-3.894,5.488c-0.531,7.375-0.708,17.406-0.708,22.775
			c0,4.012,0.59,4.543,5.016,4.543c6.844,0,8.084-1.121,9.381-8.378l2.598-0.295l0.176,0.295c0,0-1.062,5.37-1.711,11.212
			l-0.295,0.354c0,0-10.267-0.531-15.873-0.531C85.507,47.73,82.025,48.32,82.025,48.32z"/>
		<path display="inline" d="M120.493,41.121c0,3.188,0.531,4.014,2.597,4.014c1.416,0,3.127-0.178,3.127-0.178l0.118,0.236
			l-0.531,2.715c0,0-4.956-0.178-7.729-0.178c-3.01,0-6.845,0.707-6.845,0.707l0.354-2.713c3.717-0.709,4.72-1.771,4.72-5.074
			l0.06-24.783c0-2.479-0.413-3.186-2.184-3.186c-0.885,0-2.479,0.117-2.479,0.117l-0.117-0.236l0.412-2.596
			c0,0,4.604,0.178,7.022,0.178c2.714,0,6.785-0.531,6.785-0.531l-0.235,2.654c-3.305,0.414-4.131,1.121-4.249,3.363
			C120.906,24.188,120.493,36.225,120.493,41.121z"/>
		<path display="inline" d="M196.133,39.174V15.277c0-1.711-0.649-2.537-1.947-2.537c-1.063,0-2.242,0.059-2.242,0.059l-0.118-0.236
			l0.531-2.654c0,0,3.599,0.236,5.605,0.236c2.478,0,5.841-0.473,5.841-0.473l-0.295,2.715c-2.714,0.354-3.953,1.416-4.012,3.717
			l-0.826,33.16l-1.712,0.826c-11.506-17.938-21.949-32.512-21.949-32.512h-0.296l-0.295,25.195c0,1.77,0.473,2.361,1.829,2.361
			c0.591,0,3.01-0.061,3.01-0.061l0.118,0.236l-0.531,2.656c0,0-3.718-0.236-6.255-0.236c-2.36,0-5.487,0.473-5.487,0.473
			l0.295-2.715c2.419-0.295,3.6-1.299,3.658-3.717l0.768-25.786c0-2.419-1.181-3.245-5.134-3.658l-0.177-0.295l0.472-2.184
			c0,0,3.423,0.296,5.074,0.296c1.947,0,3.954-0.236,3.954-0.236c9.795,15.223,19.825,29.266,19.825,29.266H196.133z"/>
		<path display="inline" d="M208.106,30.205c0-11.978,8.674-20.77,20.593-20.77c4.897,0,10.268,1.416,10.268,1.416l0.235,0.354
			c0,0-1.121,4.425-1.475,9.854l-2.833,0.235c0,0,0.178-1.593,0.178-2.892c0-3.658-2.892-5.487-8.674-5.487
			c-7.907,0-12.981,5.96-12.981,15.342c0,10.384,5.369,17.229,13.512,17.229c5.37,0,8.557-2.951,10.031-9.322l2.832-0.236
			c0,0-1.18,5.369-1.593,9.617l-0.354,0.531c0,0-5.075,2.359-12.097,2.359C215.01,48.438,208.106,41.357,208.106,30.205z"/>
		<path display="inline" d="M260.087,45.074c9.323,0,10.444-0.707,11.389-7.197l2.596-0.295l0.177,0.295
			c0,0-1.062,4.896-1.593,9.912l-0.295,0.354c0,0-12.273-0.412-17.879-0.412c-4.484,0-8.202,0.59-8.202,0.59l0.354-2.715
			c3.54-0.471,4.603-1.592,4.603-4.955l0.059-24.783c0-2.537-0.413-3.186-2.183-3.186c-0.708,0-2.007,0.117-2.007,0.117
			l-0.117-0.236l0.412-2.596c0,0,4.662,0.178,8.202,0.178c9.382,0,13.808-0.178,17.702-0.709l0.177,0.354
			c0,0-1.003,4.367-1.357,9.796l-2.832,0.235c0,0,0.118-1.711,0.118-2.537c0-3.835-0.708-4.189-9.028-4.189
			c-3.835,0-4.071,0.118-4.13,2.302l-0.473,11.446c1.299,0,4.308,0.06,6.078,0.06c2.124,0,7.198-0.649,7.198-0.649l0.236,0.295
			l-0.826,3.482c0,0-5.074-0.178-8.261-0.178c-1.771,0-3.54,0.236-4.543,0.413c-0.178,6.372-0.236,9.323-0.236,11.271
			C255.426,44.721,255.839,45.074,260.087,45.074z"/>
		<path display="inline" d="M142.332,45.369c-2.555,0-3.648-0.707-3.648-2.418c0-0.531,0.182-1.24,0.547-2.301l1.078-2.943
			c-0.158-0.046-0.321-0.088-0.479-0.136c-1.045-0.313-1.838-0.841-2.414-1.49l-1.774,4.509c-1.338,3.305-2.493,4.309-4.743,4.545
			l-0.487,2.773c0,0,3.771-0.178,6.69-0.178c4.014,0,8.453,0.412,8.453,0.412l0.365-2.537l-0.121-0.236H142.332z"/>
		<path display="inline" d="M162.479,45.252c-2.825-0.295-3.897-1.238-4.675-4.189c-0.583-2.113-1.259-4.711-1.259-4.711
			c-1.044,0.776-1.893,1.449-3.167,1.564c0,0,0.818,4.682,0.818,5.447c0,1.416-0.974,1.947-4.338,2.242l-0.194,2.303l0.146,0.412
			c0,0,3.508-0.59,7.26-0.59c1.657,0,5.166,0.178,5.166,0.178l0.341-2.42L162.479,45.252z"/>
	</g>
</g>
</svg>
