<?xml version="1.0" encoding="utf-8"?>
<!-- Generator: Adobe Illustrator 16.0.0, SVG Export Plug-In . SVG Version: 6.00 Build 0)  -->
<!DOCTYPE svg PUBLIC "-//W3C//DTD SVG 1.1//EN" "http://www.w3.org/Graphics/SVG/1.1/DTD/svg11.dtd">
<svg version="1.1" id="Calque_1" xmlns="http://www.w3.org/2000/svg" xmlns:xlink="http://www.w3.org/1999/xlink" x="0px" y="0px"
	 width="58.36px" height="36.666px" viewBox="0 0 58.36 36.666" enable-background="new 0 0 58.36 36.666" xml:space="preserve">
<path fill="#2D2C29" d="M38.36,21.138l-3.119,3.268c0.433-4.464-2.113-6.297-4.603-6.297c-2.22,0-4.085,1.218-4.621,3.267
	l-0.841-1.223l-1.359-1.979c0.682-1.054,1.602-1.938,2.684-2.58c1.212-0.718,2.626-1.113,4.138-1.131
	C34.93,14.414,38.36,17.738,38.36,21.138z"/>
<polygon fill="#2D2C29" points="26.797,5.055 26.797,18.921 25.177,20.152 23.817,18.173 22.585,16.379 22.585,5.055 "/>
<path fill="#E5BA30" d="M16.182,14.647c0.032,0.009,0.066,0.019,0.099,0.032c-0.165-0.046-0.271-0.068-0.3-0.074
	c0.066,0.012,0.132,0.025,0.198,0.04C16.181,14.647,16.182,14.647,16.182,14.647z"/>
<path fill="#E5BA30" d="M46.895,14.462c-2.034,0-4.68,1.048-6.337,3.087c-0.604,0.743-5.316,6.856-5.316,6.856
	s-1.125,2.557-4.45,2.557c-2.254,0-3.107-1.44-4.29-2.979c-0.571-0.743-3.373-4.986-4.43-6.244
	c-2.004-2.388-4.403-3.324-7.614-3.276c-4.489,0.068-8.128,3.641-8.128,8.128c0,4.49,3.639,8.128,8.128,8.128
	c3.183,0,5.939-1.829,7.272-4.495l-2.354-3.201c-0.678,2.414-2.407,3.904-4.918,3.904c-2.64,0-4.334-1.696-4.334-4.336
	c0-2.638,1.585-4.354,4.334-4.334c3.305,0.024,4.347,1.979,5.813,3.889c0.073,0.095,3.079,4.491,3.401,4.861
	c0.882,1.362,2.308,2.443,3.819,3.08c0.091,0.039,0.181,0.076,0.27,0.107c0.005,0.002,0.011,0.003,0.016,0.005
	c0.891,0.335,1.855,0.521,2.863,0.521c2.529,0,5.336-1.12,6.827-2.931c0.726-0.751,5.81-7.436,5.813-7.438
	c1.204-1.388,2.251-2.094,3.616-2.094c1.892,0,3.526,0.656,4.301,2.249l1.822-3.26C51.527,15.54,49.337,14.462,46.895,14.462z"/>
<path fill="#2D2C29" d="M51.112,24.838c-0.913,1.275-2.391,2.236-4.218,2.236c-2.531,0-3.911-1.479-5-3.868l-2.313,2.933
	c1.315,2.712,4.097,4.579,7.313,4.579c2.424,0,4.599-1.06,6.087-2.742L51.112,24.838z"/>
</svg>
