<?xml version="1.0" encoding="utf-8"?>
<!-- Generator: Adobe Illustrator 16.0.0, SVG Export Plug-In . SVG Version: 6.00 Build 0)  -->
<!DOCTYPE svg PUBLIC "-//W3C//DTD SVG 1.1//EN" "http://www.w3.org/Graphics/SVG/1.1/DTD/svg11.dtd">
<svg version="1.1" id="Calque_1" xmlns="http://www.w3.org/2000/svg" xmlns:xlink="http://www.w3.org/1999/xlink" x="0px" y="0px"
	 width="501px" height="300px" viewBox="0 0 501 300" enable-background="new 0 0 501 300" xml:space="preserve">
<path fill="#2D2C29" d="M297.75,136l-21.108,22.111c2.932-30.208-14.302-42.611-31.142-42.611c-15.02,0-27.641,8.24-31.27,22.11
	l-5.691-8.28l-9.199-13.39c4.609-7.13,10.84-13.12,18.16-17.46c8.199-4.86,17.77-7.534,28-7.65C274.535,90.5,297.75,113,297.75,136z
	"/>
<polygon fill="#2D2C29" points="219.5,27.17 219.5,121 208.539,129.33 199.34,115.94 191,103.8 191,27.17 "/>
<path fill="#E5BA30" d="M147.67,92.08c0.219,0.06,0.449,0.13,0.67,0.22c-1.121-0.31-1.83-0.46-2.031-0.5
	c0.451,0.08,0.891,0.17,1.34,0.27C147.66,92.08,147.67,92.08,147.67,92.08z"/>
<path fill="#E5BA30" d="M355.5,90.83c-13.77,0-31.666,7.087-42.879,20.883c-4.088,5.029-35.979,46.398-35.979,46.398
	s-7.613,17.304-30.114,17.304c-15.25,0-21.027-9.75-29.027-20.165c-3.864-5.03-22.826-33.74-29.973-42.25
	C173.961,96.843,157.73,90.5,136,90.83c-30.377,0.461-55,24.63-55,55c0,30.38,24.619,55,55,55c21.539,0,40.189-12.38,49.209-30.42
	l-15.932-21.66c-4.584,16.333-16.287,26.42-33.277,26.42c-17.861,0-29.33-11.479-29.33-29.34c0-17.85,10.728-29.469,29.33-29.33
	c22.36,0.167,29.416,13.393,39.332,26.31c0.496,0.646,20.834,30.392,23.014,32.902c5.973,9.214,15.615,16.533,25.848,20.839
	c0.613,0.268,1.223,0.516,1.826,0.729c0.031,0.011,0.068,0.019,0.102,0.028c6.027,2.271,12.555,3.525,19.379,3.525
	c17.113,0,36.107-7.577,46.195-19.834c4.91-5.079,39.315-50.312,39.333-50.333c8.148-9.389,15.231-14.167,24.472-14.167
	c12.799,0,23.859,4.44,29.1,15.22l12.33-22.06C386.85,98.12,372.029,90.83,355.5,90.83z"/>
<path fill="#2D2C29" d="M384.039,161.04c-6.176,8.627-16.18,15.13-28.539,15.13c-17.131,0-26.47-10.003-33.838-26.17l-15.652,19.84
	c8.9,18.351,27.721,30.99,49.49,30.99c16.4,0,31.119-7.17,41.189-18.561L384.039,161.04z"/>
<g>
	<path d="M88.252,228.004h0.844l6.057,15.951H94.42l-2.063-5.436h-7.433l-2.085,5.436h-0.732L88.252,228.004z M92.09,237.854
		l-3.416-8.985l-3.482,8.985H92.09z"/>
	<path d="M96.793,228.004h0.755v15.241H106v0.71h-9.207V228.004z"/>
	<path d="M108.086,228.004h0.754v15.241h8.452v0.71h-9.206V228.004z"/>
	<path d="M119.466,228.004h0.731v15.951h-0.731V228.004z"/>
	<path d="M128.162,228.004h0.844l6.056,15.951h-0.731l-2.063-5.436h-7.433l-2.085,5.436h-0.731L128.162,228.004z M132,237.854
		l-3.416-8.985l-3.483,8.985H132z"/>
	<path d="M136.682,228.004h0.754l10.005,14.687v-14.687h0.732v15.951h-0.732l-10.027-14.664v14.664h-0.731V228.004z"/>
	<path d="M162.061,242.823c-1.096,0.962-2.529,1.442-4.305,1.442c-2.277,0-3.992-0.835-5.146-2.507
		c-0.99-1.435-1.486-3.35-1.486-5.746c0-2.396,0.51-4.341,1.531-5.834c1.168-1.687,2.914-2.529,5.234-2.529
		c1.584,0,2.922,0.437,4.016,1.309c0.785,0.621,1.34,1.383,1.664,2.285l-0.688,0.354c-0.725-2.188-2.434-3.283-5.125-3.283
		c-1.996,0-3.512,0.821-4.547,2.463c-0.873,1.391-1.309,3.136-1.309,5.235c0,2.115,0.42,3.846,1.264,5.191
		c1.006,1.627,2.5,2.44,4.48,2.44c1.598,0,2.893-0.429,3.883-1.287c0.77-0.665,1.279-1.522,1.531-2.573l0.643,0.333
		C163.42,241.197,162.873,242.1,162.061,242.823z"/>
	<path d="M166.918,228.004h9.74v0.71h-8.986v6.589h7.121v0.688h-7.121v7.255h9.207v0.71h-9.961V228.004z"/>
	<path d="M185.266,228.004h4.369c1.982,0,3.357,0.229,4.127,0.688c1.139,0.666,1.709,1.753,1.709,3.262
		c0,1.79-0.91,3.003-2.729,3.639c2.365,0.458,3.549,1.826,3.549,4.104c0,1.568-0.607,2.729-1.818,3.483
		c-0.859,0.518-2.309,0.776-4.35,0.776h-4.857V228.004z M189.725,235.369c3.328,0,4.99-1.153,4.99-3.461
		c0-1.345-0.539-2.263-1.619-2.75c-0.709-0.325-1.848-0.488-3.416-0.488h-3.66v6.699H189.725z M189.969,243.289
		c1.744,0,2.941-0.133,3.594-0.398c1.301-0.533,1.951-1.643,1.951-3.328c0-1.449-0.598-2.455-1.797-3.018
		c-0.842-0.398-2.084-0.599-3.727-0.599h-3.971v7.343H189.969z"/>
	<path d="M199.596,228.004v10.027c0,3.742,1.672,5.613,5.014,5.613c1.701,0,2.98-0.518,3.838-1.553
		c0.785-0.962,1.176-2.314,1.176-4.061v-10.027h0.732v10.383c0,1.849-0.496,3.291-1.486,4.326c-1.02,1.05-2.439,1.575-4.26,1.575
		c-1.834,0-3.254-0.525-4.26-1.575c-0.99-1.006-1.486-2.448-1.486-4.326v-10.383H199.596z"/>
	<path d="M213.771,239.097c0.09,1.391,0.545,2.496,1.365,3.316c0.82,0.821,1.941,1.231,3.361,1.231c1.242,0,2.277-0.311,3.105-0.932
		c0.945-0.681,1.42-1.612,1.42-2.796c0-1.227-0.496-2.151-1.486-2.772c-0.488-0.325-1.553-0.71-3.195-1.154
		c-0.016-0.014-0.111-0.044-0.289-0.088c-1.834-0.518-2.994-0.999-3.482-1.442c-0.754-0.68-1.131-1.561-1.131-2.64
		c0-1.361,0.473-2.403,1.42-3.129c0.873-0.694,1.996-1.042,3.371-1.042c1.494,0,2.691,0.406,3.594,1.22
		c0.932,0.813,1.436,1.968,1.51,3.461h-0.711c-0.029-1.286-0.465-2.292-1.309-3.017c-0.813-0.695-1.855-1.043-3.127-1.043
		c-1.184,0-2.139,0.296-2.863,0.888c-0.783,0.621-1.176,1.508-1.176,2.662c0,0.828,0.326,1.545,0.977,2.151
		c0.488,0.444,1.539,0.873,3.15,1.287c0.029,0.015,0.07,0.025,0.123,0.033c0.051,0.008,0.113,0.026,0.188,0.056
		c1.701,0.458,2.869,0.887,3.506,1.286c1.123,0.726,1.686,1.753,1.686,3.084c0,1.479-0.525,2.633-1.574,3.461
		c-0.963,0.739-2.205,1.109-3.729,1.109c-1.611,0-2.891-0.466-3.838-1.397c-0.961-0.902-1.494-2.167-1.598-3.794H213.771z"/>
	<path d="M226.906,239.097c0.088,1.391,0.543,2.496,1.363,3.316c0.822,0.821,1.941,1.231,3.361,1.231
		c1.242,0,2.277-0.311,3.105-0.932c0.947-0.681,1.42-1.612,1.42-2.796c0-1.227-0.496-2.151-1.486-2.772
		c-0.488-0.325-1.553-0.71-3.193-1.154c-0.016-0.014-0.111-0.044-0.289-0.088c-1.834-0.518-2.994-0.999-3.482-1.442
		c-0.756-0.68-1.133-1.561-1.133-2.64c0-1.361,0.475-2.403,1.42-3.129c0.873-0.694,1.998-1.042,3.373-1.042
		c1.494,0,2.691,0.406,3.594,1.22c0.932,0.813,1.434,1.968,1.508,3.461h-0.709c-0.029-1.286-0.467-2.292-1.309-3.017
		c-0.814-0.695-1.857-1.043-3.129-1.043c-1.184,0-2.137,0.296-2.861,0.888c-0.785,0.621-1.176,1.508-1.176,2.662
		c0,0.828,0.324,1.545,0.977,2.151c0.486,0.444,1.537,0.873,3.15,1.287c0.029,0.015,0.068,0.025,0.121,0.033
		c0.051,0.008,0.115,0.026,0.189,0.056c1.699,0.458,2.869,0.887,3.504,1.286c1.125,0.726,1.686,1.753,1.686,3.084
		c0,1.479-0.523,2.633-1.574,3.461c-0.961,0.739-2.203,1.109-3.727,1.109c-1.613,0-2.893-0.466-3.838-1.397
		c-0.963-0.902-1.494-2.167-1.598-3.794H226.906z"/>
	<path d="M239.816,228.004h0.732v15.951h-0.732V228.004z"/>
	<path d="M244.299,228.004h0.754l10.006,14.687v-14.687h0.73v15.951h-0.73l-10.029-14.664v14.664h-0.73V228.004z"/>
	<path d="M259.428,228.004h9.74v0.71h-8.986v6.589h7.121v0.688h-7.121v7.255h9.207v0.71h-9.961V228.004z"/>
	<path d="M271.918,239.097c0.088,1.391,0.543,2.496,1.363,3.316c0.822,0.821,1.941,1.231,3.361,1.231
		c1.242,0,2.277-0.311,3.105-0.932c0.947-0.681,1.42-1.612,1.42-2.796c0-1.227-0.496-2.151-1.486-2.772
		c-0.488-0.325-1.553-0.71-3.193-1.154c-0.016-0.014-0.111-0.044-0.289-0.088c-1.834-0.518-2.994-0.999-3.482-1.442
		c-0.756-0.68-1.133-1.561-1.133-2.64c0-1.361,0.475-2.403,1.42-3.129c0.873-0.694,1.998-1.042,3.373-1.042
		c1.494,0,2.691,0.406,3.594,1.22c0.932,0.813,1.434,1.968,1.508,3.461h-0.709c-0.029-1.286-0.467-2.292-1.309-3.017
		c-0.814-0.695-1.857-1.043-3.129-1.043c-1.184,0-2.137,0.296-2.861,0.888c-0.785,0.621-1.176,1.508-1.176,2.662
		c0,0.828,0.324,1.545,0.977,2.151c0.486,0.444,1.537,0.873,3.15,1.287c0.029,0.015,0.068,0.025,0.121,0.033
		c0.051,0.008,0.115,0.026,0.189,0.056c1.699,0.458,2.869,0.887,3.504,1.286c1.125,0.726,1.686,1.753,1.686,3.084
		c0,1.479-0.523,2.633-1.574,3.461c-0.961,0.739-2.203,1.109-3.727,1.109c-1.613,0-2.893-0.466-3.838-1.397
		c-0.963-0.902-1.494-2.167-1.598-3.794H271.918z"/>
	<path d="M285.051,239.097c0.09,1.391,0.545,2.496,1.365,3.316c0.82,0.821,1.941,1.231,3.361,1.231c1.242,0,2.277-0.311,3.105-0.932
		c0.945-0.681,1.42-1.612,1.42-2.796c0-1.227-0.496-2.151-1.486-2.772c-0.488-0.325-1.553-0.71-3.195-1.154
		c-0.016-0.014-0.111-0.044-0.289-0.088c-1.834-0.518-2.994-0.999-3.482-1.442c-0.754-0.68-1.131-1.561-1.131-2.64
		c0-1.361,0.473-2.403,1.42-3.129c0.873-0.694,1.996-1.042,3.371-1.042c1.494,0,2.691,0.406,3.594,1.22
		c0.932,0.813,1.436,1.968,1.51,3.461h-0.711c-0.029-1.286-0.465-2.292-1.309-3.017c-0.813-0.695-1.855-1.043-3.127-1.043
		c-1.184,0-2.139,0.296-2.863,0.888c-0.783,0.621-1.176,1.508-1.176,2.662c0,0.828,0.326,1.545,0.977,2.151
		c0.488,0.444,1.539,0.873,3.15,1.287c0.029,0.015,0.07,0.025,0.123,0.033c0.051,0.008,0.113,0.026,0.188,0.056
		c1.701,0.458,2.869,0.887,3.506,1.286c1.123,0.726,1.686,1.753,1.686,3.084c0,1.479-0.525,2.633-1.574,3.461
		c-0.963,0.739-2.205,1.109-3.729,1.109c-1.611,0-2.891-0.466-3.838-1.397c-0.961-0.902-1.494-2.167-1.598-3.794H285.051z"/>
	<path d="M313.869,242.823c-1.096,0.962-2.529,1.442-4.305,1.442c-2.277,0-3.992-0.835-5.146-2.507
		c-0.99-1.435-1.486-3.35-1.486-5.746c0-2.396,0.51-4.341,1.531-5.834c1.168-1.687,2.914-2.529,5.234-2.529
		c1.584,0,2.922,0.437,4.016,1.309c0.785,0.621,1.34,1.383,1.664,2.285l-0.688,0.354c-0.725-2.188-2.434-3.283-5.125-3.283
		c-1.996,0-3.512,0.821-4.547,2.463c-0.873,1.391-1.309,3.136-1.309,5.235c0,2.115,0.42,3.846,1.264,5.191
		c1.006,1.627,2.5,2.44,4.48,2.44c1.598,0,2.893-0.429,3.883-1.287c0.77-0.665,1.279-1.522,1.531-2.573l0.643,0.333
		C315.229,241.197,314.682,242.1,313.869,242.823z"/>
	<path d="M319.727,230.134c1.242-1.656,3.039-2.484,5.391-2.484c2.365,0,4.17,0.82,5.412,2.462c1.109,1.494,1.664,3.454,1.664,5.879
		c0,2.44-0.555,4.394-1.664,5.857c-1.242,1.627-3.047,2.44-5.412,2.44c-2.367,0-4.164-0.813-5.391-2.44
		c-1.109-1.464-1.664-3.417-1.664-5.857C318.063,233.58,318.617,231.628,319.727,230.134z M320.281,241.337
		c1.094,1.539,2.707,2.308,4.836,2.308c2.145,0,3.764-0.769,4.857-2.308c0.963-1.346,1.443-3.128,1.443-5.347
		c0-2.203-0.488-3.985-1.465-5.346c-1.109-1.554-2.721-2.33-4.836-2.33s-3.727,0.776-4.836,2.33
		c-0.963,1.36-1.443,3.143-1.443,5.346C318.838,238.194,319.318,239.977,320.281,241.337z"/>
	<path d="M335.787,228.004v10.027c0,3.742,1.672,5.613,5.014,5.613c1.701,0,2.98-0.518,3.838-1.553
		c0.785-0.962,1.176-2.314,1.176-4.061v-10.027h0.732v10.383c0,1.849-0.496,3.291-1.486,4.326c-1.02,1.05-2.439,1.575-4.26,1.575
		c-1.834,0-3.254-0.525-4.26-1.575c-0.99-1.006-1.486-2.448-1.486-4.326v-10.383H335.787z"/>
	<path d="M350.053,228.004h0.754l10.006,14.687v-14.687h0.73v15.951h-0.73l-10.029-14.664v14.664h-0.73V228.004z"/>
	<path d="M375.432,242.823c-1.096,0.962-2.529,1.442-4.305,1.442c-2.277,0-3.992-0.835-5.146-2.507
		c-0.99-1.435-1.486-3.35-1.486-5.746c0-2.396,0.51-4.341,1.531-5.834c1.168-1.687,2.914-2.529,5.234-2.529
		c1.584,0,2.922,0.437,4.016,1.309c0.785,0.621,1.34,1.383,1.664,2.285l-0.688,0.354c-0.725-2.188-2.434-3.283-5.125-3.283
		c-1.996,0-3.512,0.821-4.547,2.463c-0.873,1.391-1.309,3.136-1.309,5.235c0,2.115,0.42,3.846,1.264,5.191
		c1.006,1.627,2.5,2.44,4.48,2.44c1.598,0,2.893-0.429,3.883-1.287c0.77-0.665,1.279-1.522,1.531-2.573l0.643,0.333
		C376.791,241.197,376.244,242.1,375.432,242.823z"/>
	<path d="M380.4,228.004h0.732v15.951H380.4V228.004z"/>
	<path d="M384.904,228.004h0.754v15.241h8.453v0.71h-9.207V228.004z"/>
</g>
<g>
	<path fill="#E5BA30" d="M123.48,215.334c0,0,3.586-0.07,9.861-0.193c6.275-0.081,15.24-0.276,25.998-0.367
		c10.758-0.083,23.309-0.268,36.756-0.306c13.447-0.042,27.791-0.087,42.135-0.133c14.344,0.045,28.688,0.09,42.135,0.132
		c13.447,0.033,25.998,0.223,36.756,0.305c10.758,0.089,19.723,0.287,25.998,0.368c6.275,0.124,9.861,0.194,9.861,0.194
		s-3.586,0.07-9.861,0.194c-6.275,0.081-15.24,0.279-25.998,0.368c-10.758,0.082-23.309,0.271-36.756,0.305
		c-13.447,0.042-27.791,0.087-42.135,0.132c-14.344-0.046-28.688-0.091-42.135-0.133c-13.447-0.038-25.998-0.223-36.756-0.306
		c-10.758-0.091-19.723-0.286-25.998-0.367C127.066,215.404,123.48,215.334,123.48,215.334z"/>
</g>
</svg>
