<?xml version="1.0" encoding="utf-8"?>
<!-- Generator: Adobe Illustrator 16.0.0, SVG Export Plug-In . SVG Version: 6.00 Build 0)  -->
<!DOCTYPE svg PUBLIC "-//W3C//DTD SVG 1.1//EN" "http://www.w3.org/Graphics/SVG/1.1/DTD/svg11.dtd">
<svg version="1.1" id="Calque_1" xmlns="http://www.w3.org/2000/svg" xmlns:xlink="http://www.w3.org/1999/xlink" x="0px" y="0px"
	 width="23.333px" height="13.5px" viewBox="0 0 23.333 13.5" enable-background="new 0 0 23.333 13.5" xml:space="preserve">
<path fill="#FFFFFF" stroke="#000000" stroke-miterlimit="10" d="M15.896,2.791v8.582c0,0.451-0.366,0.817-0.817,0.817H3.344
	c-0.452,0-0.817-0.366-0.817-0.817V2.791c0-0.183,0.06-0.352,0.161-0.488c0.149-0.2,0.388-0.33,0.657-0.33h11.735
	c0.29,0,0.545,0.151,0.69,0.378C15.85,2.479,15.896,2.629,15.896,2.791z"/>
<path fill="#FFFFFF" stroke="#000000" stroke-miterlimit="10" d="M15.769,2.352l-6.081,6.08c-0.24,0.241-0.694,0.178-1.012-0.141
	L2.687,2.303c0.149-0.2,0.388-0.33,0.657-0.33h11.735C15.369,1.973,15.624,2.125,15.769,2.352z"/>
</svg>
