<?xml version="1.0" encoding="utf-8"?>
<!-- Generator: Adobe Illustrator 16.0.0, SVG Export Plug-In . SVG Version: 6.00 Build 0)  -->
<!DOCTYPE svg PUBLIC "-//W3C//DTD SVG 1.1//EN" "http://www.w3.org/Graphics/SVG/1.1/DTD/svg11.dtd">
<svg version="1.1" id="Calque_1" xmlns="http://www.w3.org/2000/svg" xmlns:xlink="http://www.w3.org/1999/xlink" x="0px" y="0px"
	 width="504px" height="211px" viewBox="0 0 504 211" enable-background="new 0 0 504 211" xml:space="preserve">
<path fill="#161209" d="M334.037,104.186c-11.428,11.547-24.225,21.506-36.846,31.664c-0.445,0.357-1.554,1.463-2.193,1.578
	c1.053-3.018,1.654-4.021,2.236-5.5c3.028-7.7,0.485-15.619-6.98-20.99c-16.508-11.877-43.237-10.658-59.586,3.046
	c-1.422,1.192-3.522,2.719-3.522,2.719s-2.033-1.667-3.323-2.862c-9.65-8.944-19.516-17.658-29.356-26.396
	c-1.573-1.396-2.523-2.032-2.523-2.032c0.098-19.992,0.125-46.278-0.016-66.269l41.789-0.204c0,0,0.253,37.57,0.006,54.061
	c-0.03,1.992-0.076,4.691-0.076,4.691s2.95-0.438,4.836-0.759c23.275-3.964,46.068-2.814,67.91,7.138
	C316.982,88.894,326.129,95.686,334.037,104.186z"/>
<g>
	
		<linearGradient id="SVGID_1_" gradientUnits="userSpaceOnUse" x1="-377.5889" y1="720.5498" x2="-253.9995" y2="720.5498" gradientTransform="matrix(1 0 0 -1 702.3398 847.0391)">
		<stop  offset="0" style="stop-color:#D59D02"/>
		<stop  offset="1" style="stop-color:#E1BA4C"/>
	</linearGradient>
	<path fill="url(#SVGID_1_)" d="M258.618,178.092c-24.632,0-47.231-8.968-67.169-26.656c-4.97-4.408-9.927-8.832-14.885-13.254
		c-9.841-8.78-20.018-17.857-30.128-26.675c-7.78-6.785-19.008-10.676-30.805-10.676c-9.817,0-19.198,2.699-26.415,7.6
		c-5.384,3.655-9.218,8.233-11.086,13.238c-1.861,4.986-0.548,10.953,3.513,15.962c6.383,7.873,15.139,12.236,26.769,13.338
		c1.877,0.178,3.77,0.268,5.624,0.268c14.565,0,28.47-5.457,42.51-16.687c1.741-1.392,2.316-1.95,2.737-2.358
		c0.1-0.097,0.187-0.181,0.276-0.264c5.608,5.569,14.54,14.292,21.231,20.653c-8.994,6.574-19.15,11.903-31.008,16.271
		c-14.141,5.209-27.246,7.741-40.062,7.741c-9.963,0-19.781-1.608-29.181-4.78c-15.384-5.189-27.387-13.653-35.678-25.156
		c-9.634-13.367-9.617-26.964,0.051-40.416c11.004-15.313,26.313-25.051,45.5-28.946c7.87-1.597,15.986-2.407,24.125-2.407
		c10.717,0,21.775,1.402,32.869,4.167c9.822,2.449,19.086,7.477,28.321,15.368c4.552,3.89,9.125,7.758,13.697,11.626
		c13.012,11.008,26.466,22.391,39.203,34.11c7.993,7.354,19.157,11.404,31.436,11.404c10.112,0,20.018-2.774,27.89-7.814
		l0.086-0.063l9.03-7.233l4.247-3.409c11.06-8.868,22.495-18.038,32.686-28.332c8.131-7.778,16.144-13.725,24.472-18.163
		c13.793-7.346,28.926-11.071,44.979-11.071c2.474,0,5.008,0.089,7.532,0.264c20.087,1.395,36.722,6.202,50.856,14.696
		c1.603,0.963,2.418,1.521,3.031,1.963c-5.44,3.388-21.184,13.232-28.84,18.461c-0.656-0.381-1.351-0.823-1.979-1.224
		c-0.56-0.356-1.056-0.673-1.412-0.875c-8.971-5.31-18.046-8.007-26.955-8.007c-9.966,0-19.668,3.363-28.839,9.997
		c-7.402,5.355-15.98,11.887-23.481,19.731c-2.272,2.376-4.988,4.455-7.615,6.465c-2.028,1.552-4.126,3.157-6.047,4.915
		c-1.571,1.437-3.131,2.89-4.691,4.343c-10.476,9.757-21.308,19.847-35.445,24.619C285.279,175.646,271.504,178.091,258.618,178.092
		z"/>
	<path fill="#D59D02" d="M114.535,75.887c10.635,0,21.613,1.393,32.626,4.138c9.669,2.41,18.799,7.369,27.914,15.158
		c4.555,3.893,9.205,7.826,13.702,11.631c13.003,11.001,26.45,22.376,39.17,34.081c8.178,7.525,19.583,11.67,32.113,11.67
		c10.301,0,20.396-2.832,28.428-7.974l0.09-0.058l0.082-0.066l9.034-7.236c1.413-1.138,2.827-2.272,4.243-3.407
		c11.074-8.879,22.526-18.063,32.75-28.388c8.077-7.724,16.012-13.613,24.252-18.003c13.646-7.268,28.621-10.954,44.508-10.954
		c2.451,0,4.962,0.088,7.463,0.262c19.926,1.384,36.415,6.145,50.411,14.556c0.715,0.429,1.27,0.776,1.718,1.067
		c-6.632,4.136-19.813,12.41-27.047,17.313c-0.475-0.289-0.956-0.596-1.404-0.882c-0.572-0.365-1.066-0.68-1.424-0.882
		c-9.143-5.411-18.389-8.155-27.48-8.156c-10.18,0-20.078,3.427-29.425,10.186c-7.438,5.382-16.063,11.949-23.619,19.851
		c-2.22,2.32-4.784,4.284-7.5,6.362c-2.046,1.564-4.159,3.184-6.113,4.971c-1.573,1.439-3.137,2.895-4.698,4.35
		c-10.397,9.686-21.149,19.7-35.085,24.403c-14.181,4.786-27.849,7.212-40.624,7.212c-24.381,0-46.757-8.884-66.505-26.404
		c-4.969-4.407-9.925-8.83-14.882-13.252c-9.844-8.781-20.022-17.861-30.137-26.683c-7.959-6.94-19.427-10.921-31.462-10.922
		c-10.014,0-19.595,2.76-26.977,7.772c-5.556,3.772-9.521,8.515-11.461,13.716c-1.987,5.322-0.614,11.655,3.672,16.942
		c6.562,8.093,15.541,12.575,27.451,13.704c1.909,0.182,3.833,0.272,5.718,0.272c14.801,0,28.91-5.53,43.135-16.906
		c1.272-1.017,1.939-1.603,2.375-2.008c5.382,5.334,13.375,13.137,19.684,19.151c-8.677,6.198-18.448,11.26-29.793,15.438
		c-14.03,5.167-27.021,7.68-39.716,7.68c-9.855,0-19.565-1.59-28.862-4.727c-15.182-5.122-27.02-13.464-35.186-24.795
		c-9.355-12.979-9.338-26.185,0.051-39.248c10.853-15.101,25.955-24.707,44.887-28.55C98.414,76.689,106.463,75.887,114.535,75.887
		 M114.535,73.887c-8.116,0-16.236,0.785-24.323,2.427c-18.674,3.791-34.684,13.44-46.113,29.343
		c-9.915,13.795-10.015,27.759-0.05,41.584c9.116,12.649,21.739,20.651,36.169,25.521c9.869,3.33,19.708,4.832,29.501,4.832
		c13.58,0,27.07-2.891,40.408-7.803c11.41-4.203,22.215-9.637,32.216-17.114c-6.704-6.351-16.467-15.87-22.719-22.093
		c-1.242,0.931-0.744,0.819-3.703,3.186c-12.387,9.906-26.062,16.468-41.886,16.468c-1.814,0-3.658-0.086-5.529-0.264
		c-10.304-0.978-19.377-4.699-26.086-12.974c-3.586-4.423-5.18-10.087-3.353-14.982c1.894-5.072,5.866-9.472,10.711-12.761
		c7.313-4.965,16.564-7.427,25.854-7.427c11.074,0.001,22.202,3.501,30.148,10.43c15.114,13.181,30.005,26.615,45.007,39.925
		c20.885,18.528,43.615,26.907,67.833,26.907c13.323,0,27.101-2.538,41.264-7.317c16.427-5.543,28.123-17.854,40.493-29.172
		c4.388-4.013,9.625-7.154,13.71-11.427c7.089-7.413,15.221-13.734,23.346-19.612c9.087-6.572,18.587-9.807,28.253-9.807
		c8.747,0.001,17.634,2.651,26.463,7.877c0.854,0.484,2.541,1.65,3.935,2.405c7.269-5.005,23.085-14.917,30.582-19.576
		c-1.039-0.713-1.521-1.205-4.312-2.882C446.489,80.048,429.122,76,411.051,74.745c-2.549-0.177-5.082-0.267-7.602-0.267
		c-15.851,0-31.098,3.546-45.447,11.188c-9.173,4.887-17.242,11.195-24.713,18.342c-11.429,11.547-24.225,21.506-36.848,31.664
		l-9.029,7.234c-7.773,4.977-17.553,7.656-27.35,7.656c-11.228,0-22.479-3.521-30.76-11.141
		c-17.155-15.784-35.196-30.608-52.928-45.761c-8.447-7.22-17.885-12.875-28.729-15.578
		C136.659,75.345,125.599,73.887,114.535,73.887L114.535,73.887z"/>
</g>
<path fill="#161209" d="M333.979,155.92c9.259-8.386,18.313-16.536,27.482-24.999c1.667,1.242,0.818,0.902,2.661,2.325
	c11.041,8.525,22.813,15.636,37.096,17.075c11.79,1.188,23.332-0.374,32.599-8.108c1.17-0.977,1.17-0.977,2.475-2.046
	c8.902,6.426,20.621,13.906,29.68,20.196C425.373,195.75,364.602,186.102,333.979,155.92z"/>
<path fill="#D59D02" d="M432.146,109.634"/>
</svg>
