<?xml version="1.0" encoding="utf-8"?>
<!-- Generator: Adobe Illustrator 16.0.0, SVG Export Plug-In . SVG Version: 6.00 Build 0)  -->
<!DOCTYPE svg PUBLIC "-//W3C//DTD SVG 1.1//EN" "http://www.w3.org/Graphics/SVG/1.1/DTD/svg11.dtd">
<svg version="1.1" id="Calque_1" xmlns="http://www.w3.org/2000/svg" xmlns:xlink="http://www.w3.org/1999/xlink" x="0px" y="0px"
	 width="517px" height="267px" viewBox="0 0 517 267" enable-background="new 0 0 517 267" xml:space="preserve">
<path fill="#161209" d="M334.037,104.186c-11.428,11.547-24.225,21.506-36.846,31.664c-0.445,0.357-1.554,1.463-2.193,1.578
	c1.053-3.018,1.654-4.021,2.236-5.5c3.028-7.7,0.485-15.619-6.98-20.99c-16.508-11.877-43.237-10.658-59.586,3.046
	c-1.422,1.192-3.522,2.719-3.522,2.719s-2.033-1.667-3.323-2.862c-9.65-8.944-19.516-17.658-29.356-26.396
	c-1.573-1.396-2.523-2.032-2.523-2.032c0.098-19.992,0.125-46.278-0.016-66.269l41.789-0.204c0,0,0.253,37.57,0.006,54.061
	c-0.03,1.992-0.076,4.691-0.076,4.691s2.95-0.438,4.836-0.759c23.275-3.964,46.068-2.814,67.91,7.138
	C316.982,88.894,326.129,95.686,334.037,104.186z"/>
<g>
	
		<linearGradient id="SVGID_1_" gradientUnits="userSpaceOnUse" x1="-377.5889" y1="720.5498" x2="-253.9995" y2="720.5498" gradientTransform="matrix(1 0 0 -1 702.3398 847.0391)">
		<stop  offset="0" style="stop-color:#D59D02"/>
		<stop  offset="1" style="stop-color:#E1BA4C"/>
	</linearGradient>
	<path fill="url(#SVGID_1_)" d="M258.618,178.092c-24.632,0-47.231-8.968-67.169-26.656c-4.97-4.408-9.927-8.832-14.885-13.254
		c-9.841-8.78-20.018-17.857-30.128-26.675c-7.78-6.785-19.008-10.676-30.805-10.676c-9.817,0-19.198,2.699-26.415,7.6
		c-5.384,3.655-9.218,8.233-11.086,13.238c-1.861,4.986-0.548,10.953,3.513,15.962c6.383,7.873,15.139,12.236,26.769,13.338
		c1.877,0.178,3.77,0.268,5.624,0.268c14.565,0,28.47-5.457,42.51-16.687c1.741-1.392,2.316-1.95,2.737-2.358
		c0.1-0.097,0.187-0.181,0.276-0.264c5.608,5.569,14.54,14.292,21.231,20.653c-8.994,6.574-19.15,11.903-31.008,16.271
		c-14.141,5.209-27.246,7.741-40.062,7.741c-9.963,0-19.781-1.608-29.181-4.78c-15.384-5.189-27.387-13.653-35.678-25.156
		c-9.634-13.367-9.617-26.964,0.051-40.416c11.004-15.313,26.313-25.051,45.5-28.946c7.87-1.597,15.986-2.407,24.125-2.407
		c10.717,0,21.775,1.402,32.869,4.167c9.822,2.449,19.086,7.477,28.321,15.368c4.552,3.89,9.125,7.758,13.697,11.626
		c13.012,11.008,26.466,22.391,39.203,34.11c7.993,7.354,19.157,11.404,31.436,11.404c10.112,0,20.018-2.774,27.89-7.814
		l0.086-0.063l9.03-7.233l4.247-3.409c11.06-8.868,22.495-18.038,32.686-28.332c8.131-7.778,16.144-13.725,24.472-18.163
		c13.793-7.346,28.926-11.071,44.979-11.071c2.474,0,5.008,0.089,7.532,0.264c20.087,1.395,36.722,6.202,50.856,14.696
		c1.603,0.963,2.418,1.521,3.031,1.963c-5.44,3.388-21.184,13.232-28.84,18.461c-0.656-0.381-1.351-0.823-1.979-1.224
		c-0.56-0.356-1.056-0.673-1.412-0.875c-8.971-5.31-18.046-8.007-26.955-8.007c-9.966,0-19.668,3.363-28.839,9.997
		c-7.402,5.355-15.98,11.887-23.481,19.731c-2.272,2.376-4.988,4.455-7.615,6.465c-2.028,1.552-4.126,3.157-6.047,4.915
		c-1.571,1.437-3.131,2.89-4.691,4.343c-10.476,9.757-21.308,19.847-35.445,24.619C285.279,175.646,271.504,178.091,258.618,178.092
		z"/>
	<path fill="#D59D02" d="M114.535,75.887c10.635,0,21.613,1.393,32.626,4.138c9.669,2.41,18.799,7.369,27.914,15.158
		c4.555,3.893,9.205,7.826,13.702,11.631c13.003,11.001,26.45,22.376,39.17,34.081c8.178,7.525,19.583,11.67,32.113,11.67
		c10.301,0,20.396-2.832,28.428-7.974l0.09-0.058l0.082-0.066l9.034-7.236c1.413-1.138,2.827-2.272,4.243-3.407
		c11.074-8.879,22.526-18.063,32.75-28.388c8.077-7.724,16.012-13.613,24.252-18.003c13.646-7.268,28.621-10.954,44.508-10.954
		c2.451,0,4.962,0.088,7.463,0.262c19.926,1.384,36.415,6.145,50.411,14.556c0.715,0.429,1.27,0.776,1.718,1.067
		c-6.632,4.136-19.813,12.41-27.047,17.313c-0.475-0.289-0.956-0.596-1.404-0.882c-0.572-0.365-1.066-0.68-1.424-0.882
		c-9.143-5.411-18.389-8.155-27.48-8.156c-10.18,0-20.078,3.427-29.425,10.186c-7.438,5.382-16.063,11.949-23.619,19.851
		c-2.22,2.32-4.784,4.284-7.5,6.362c-2.046,1.564-4.159,3.184-6.113,4.971c-1.573,1.439-3.137,2.895-4.698,4.35
		c-10.397,9.686-21.149,19.7-35.085,24.403c-14.181,4.786-27.849,7.212-40.624,7.212c-24.381,0-46.757-8.884-66.505-26.404
		c-4.969-4.407-9.925-8.83-14.882-13.252c-9.844-8.781-20.022-17.861-30.137-26.683c-7.959-6.94-19.427-10.921-31.462-10.922
		c-10.014,0-19.595,2.76-26.977,7.772c-5.556,3.772-9.521,8.515-11.461,13.716c-1.987,5.322-0.614,11.655,3.672,16.942
		c6.562,8.093,15.541,12.575,27.451,13.704c1.909,0.182,3.833,0.272,5.718,0.272c14.801,0,28.91-5.53,43.135-16.906
		c1.272-1.017,1.939-1.603,2.375-2.008c5.382,5.334,13.375,13.137,19.684,19.151c-8.677,6.198-18.448,11.26-29.793,15.438
		c-14.03,5.167-27.021,7.68-39.716,7.68c-9.855,0-19.565-1.59-28.862-4.727c-15.182-5.122-27.02-13.464-35.186-24.795
		c-9.355-12.979-9.338-26.185,0.051-39.248c10.853-15.101,25.955-24.707,44.887-28.55C98.414,76.689,106.463,75.887,114.535,75.887
		 M114.535,73.887c-8.116,0-16.236,0.785-24.323,2.427c-18.674,3.791-34.684,13.44-46.113,29.343
		c-9.915,13.795-10.015,27.759-0.05,41.584c9.116,12.649,21.739,20.651,36.169,25.521c9.869,3.33,19.708,4.832,29.501,4.832
		c13.58,0,27.07-2.891,40.408-7.803c11.41-4.203,22.215-9.637,32.216-17.114c-6.704-6.351-16.467-15.87-22.719-22.093
		c-1.242,0.931-0.744,0.819-3.703,3.186c-12.387,9.906-26.062,16.468-41.886,16.468c-1.814,0-3.658-0.086-5.529-0.264
		c-10.304-0.978-19.377-4.699-26.086-12.974c-3.586-4.423-5.18-10.087-3.353-14.982c1.894-5.072,5.866-9.472,10.711-12.761
		c7.313-4.965,16.564-7.427,25.854-7.427c11.074,0.001,22.202,3.501,30.148,10.43c15.114,13.181,30.005,26.615,45.007,39.925
		c20.885,18.528,43.615,26.907,67.833,26.907c13.323,0,27.101-2.538,41.264-7.317c16.427-5.543,28.123-17.854,40.493-29.172
		c4.388-4.013,9.625-7.154,13.71-11.427c7.089-7.413,15.221-13.734,23.346-19.612c9.087-6.572,18.587-9.807,28.253-9.807
		c8.747,0.001,17.634,2.651,26.463,7.877c0.854,0.484,2.541,1.65,3.935,2.405c7.269-5.005,23.085-14.917,30.582-19.576
		c-1.039-0.713-1.521-1.205-4.312-2.882C446.489,80.048,429.122,76,411.051,74.745c-2.549-0.177-5.082-0.267-7.602-0.267
		c-15.851,0-31.098,3.546-45.447,11.188c-9.173,4.887-17.242,11.195-24.713,18.342c-11.429,11.547-24.225,21.506-36.848,31.664
		l-9.029,7.234c-7.773,4.977-17.553,7.656-27.35,7.656c-11.228,0-22.479-3.521-30.76-11.141
		c-17.155-15.784-35.196-30.608-52.928-45.761c-8.447-7.22-17.885-12.875-28.729-15.578
		C136.659,75.345,125.599,73.887,114.535,73.887L114.535,73.887z"/>
</g>
<path fill="#161209" d="M333.979,155.92c9.259-8.386,18.313-16.536,27.482-24.999c1.667,1.242,0.818,0.902,2.661,2.325
	c11.041,8.525,22.813,15.636,37.096,17.075c11.79,1.188,23.332-0.374,32.599-8.108c1.17-0.977,1.17-0.977,2.475-2.046
	c8.902,6.426,20.621,13.906,29.68,20.196C425.373,195.75,364.602,186.102,333.979,155.92z"/>
<path fill="#D59D02" d="M432.146,109.634"/>
<g enable-background="new    ">
	<path fill="#D59D02" d="M57.698,217.017h5.897V241h-5.897v-2.772c-2.068,2.244-4.621,3.345-7.657,3.345
		c-3.433,0-6.293-1.188-8.537-3.608c-2.244-2.421-3.345-5.457-3.345-9.065s1.145-6.602,3.389-8.934
		c2.244-2.376,5.104-3.564,8.493-3.564c2.993,0,5.545,1.145,7.657,3.477V217.017z M55.85,224.102
		c-1.276-1.364-2.861-2.024-4.797-2.024c-1.98,0-3.564,0.66-4.841,2.024c-1.232,1.364-1.848,2.992-1.848,4.885
		c0,1.937,0.616,3.564,1.892,4.929c1.276,1.364,2.861,2.024,4.797,2.024s3.521-0.66,4.797-2.024
		c1.276-1.364,1.936-2.992,1.936-4.929C57.786,227.094,57.126,225.466,55.85,224.102z"/>
	<path fill="#D59D02" d="M75.384,241h-6.205v-33.445h6.205V241z"/>
	<path fill="#D59D02" d="M87.176,241h-6.205v-33.445h6.205V241z"/>
	<path fill="#D59D02" d="M93.247,213.232c-1.452-1.453-1.452-4.005,0-5.413c1.453-1.452,4.005-1.452,5.457,0
		c1.452,1.408,1.452,3.96,0,5.413C97.251,214.685,94.699,214.685,93.247,213.232z M99.056,241h-6.205v-23.983h6.205V241z"/>
	<path fill="#D59D02" d="M122.861,217.017h5.897V241h-5.897v-2.772c-2.068,2.244-4.621,3.345-7.657,3.345
		c-3.433,0-6.293-1.188-8.537-3.608c-2.245-2.421-3.345-5.457-3.345-9.065s1.145-6.602,3.389-8.934
		c2.244-2.376,5.105-3.564,8.493-3.564c2.993,0,5.545,1.145,7.657,3.477V217.017z M121.013,224.102
		c-1.276-1.364-2.86-2.024-4.797-2.024c-1.98,0-3.564,0.66-4.841,2.024c-1.232,1.364-1.848,2.992-1.848,4.885
		c0,1.937,0.616,3.564,1.892,4.929c1.276,1.364,2.86,2.024,4.797,2.024s3.521-0.66,4.797-2.024c1.276-1.364,1.936-2.992,1.936-4.929
		C122.949,227.094,122.289,225.466,121.013,224.102z"/>
	<path fill="#D59D02" d="M134.342,241v-23.983h6.073v3.345c1.276-2.333,4.137-4.005,7.525-4.005c2.596,0,4.84,0.88,6.645,2.597
		c1.805,1.716,2.729,4.181,2.729,7.393V241h-6.205v-12.981c0-3.829-2.024-5.941-5.061-5.941c-3.3,0-5.5,2.509-5.5,6.073V241H134.342
		z"/>
	<path fill="#D59D02" d="M164.922,238.008c-2.376-2.333-3.564-5.369-3.564-9.021s1.188-6.689,3.609-9.021
		c2.42-2.376,5.5-3.564,9.285-3.564c4.885,0,9.197,2.42,11.178,6.689l-4.973,2.728c-1.453-2.42-3.521-3.652-6.117-3.652
		c-1.98,0-3.608,0.66-4.885,1.98c-1.276,1.276-1.936,2.904-1.936,4.841c0,1.98,0.616,3.608,1.892,4.929
		c1.276,1.276,2.905,1.937,4.797,1.937c2.508,0,5.061-1.496,6.117-3.608l5.017,2.948c-2.068,3.872-6.337,6.337-11.266,6.337
		C170.335,241.528,167.298,240.34,164.922,238.008z"/>
	<path fill="#D59D02" d="M212.137,231.187h-17.999c0.88,3.389,3.212,5.104,6.997,5.104c2.597,0,5.677-1.012,7.745-2.42l2.464,4.356
		c-3.036,2.2-6.513,3.301-10.474,3.301c-4.225,0-7.437-1.232-9.681-3.652c-2.244-2.421-3.344-5.413-3.344-8.89
		c0-3.652,1.144-6.645,3.476-9.021c2.333-2.376,5.325-3.564,9.021-3.564c3.477,0,6.381,1.101,8.625,3.257
		c2.244,2.156,3.388,5.061,3.388,8.801C212.357,229.294,212.269,230.219,212.137,231.187z M194.138,226.566h12.19
		c-0.572-3.125-2.816-5.018-5.985-5.018C197.219,221.549,194.887,223.441,194.138,226.566z"/>
</g>
<g enable-background="new    ">
	<path fill="#161209" d="M240.026,226.089c1.632,1.729,2.432,3.84,2.432,6.368c0,2.527-0.8,4.64-2.432,6.399
		c-1.632,1.728-3.648,2.592-6.08,2.592c-2.944,0-5.408-1.44-6.815-3.872V241h-1.92v-24.158h1.92v10.495
		c1.44-2.432,3.904-3.84,6.848-3.84C236.378,223.497,238.394,224.361,240.026,226.089z M238.618,237.576
		c1.248-1.376,1.888-3.104,1.888-5.119c0-2.017-0.608-3.712-1.856-5.088s-2.848-2.08-4.8-2.08c-1.983,0-3.616,0.704-4.896,2.08
		c-1.248,1.376-1.888,3.04-1.888,5.023c0,2.016,0.64,3.744,1.888,5.151c1.28,1.376,2.912,2.08,4.896,2.08
		C235.802,239.624,237.37,238.952,238.618,237.576z"/>
	<path fill="#161209" d="M248.155,239.496c-1.248-1.312-1.888-3.04-1.888-5.184v-10.432h1.92v10.399
		c0,3.296,1.952,5.344,5.056,5.344c3.2,0,5.088-2.048,5.088-5.376v-10.367h1.92v10.432c0,4.352-2.656,7.104-7.008,7.104
		C251.13,241.416,249.435,240.776,248.155,239.496z"/>
	<path fill="#161209" d="M263.61,237.641l1.536-0.96c0.992,1.983,2.496,2.976,4.512,2.976c2.304,0,3.904-1.472,3.904-3.231
		c0-1.12-0.736-2.048-2.176-2.784c-0.385-0.192-1.057-0.48-2.049-0.864c-0.992-0.416-1.664-0.704-2.047-0.928
		c-1.824-0.928-2.721-2.271-2.721-4c0-2.592,2.048-4.543,5.248-4.543c2.336,0,4.063,0.896,5.151,2.688l-1.344,1.088
		c-0.8-1.376-2.08-2.08-3.84-2.08c-2.144,0-3.36,1.152-3.36,2.784c0,1.12,0.608,1.983,1.856,2.592l1.92,0.832
		c0.991,0.416,1.76,0.735,2.272,0.991c1.951,0.929,3.008,2.145,3.008,4.096c0,1.44-0.545,2.624-1.633,3.616
		s-2.496,1.472-4.191,1.472C267.131,241.384,264.858,240.168,263.61,237.641z"/>
	<path fill="#161209" d="M278.586,219.562c0-0.928,0.736-1.632,1.664-1.632c0.896,0,1.632,0.704,1.632,1.632
		s-0.735,1.632-1.632,1.632C279.322,221.193,278.586,220.489,278.586,219.562z M281.146,241h-1.92v-17.119h1.92V241z"/>
	<path fill="#161209" d="M286.49,241v-17.119h1.855v3.008c1.023-2.271,3.168-3.455,5.951-3.455c1.92,0,3.52,0.64,4.832,1.888
		s1.951,3.04,1.951,5.344V241h-1.92v-9.983c0-3.584-1.919-5.791-5.087-5.791c-1.504,0-2.815,0.512-3.968,1.567
		c-1.12,1.024-1.695,2.56-1.695,4.607v9.6H286.49z"/>
	<path fill="#161209" d="M321.336,233.192h-14.398c0.288,3.808,2.752,6.399,6.943,6.399c2.208,0,4.736-0.8,6.271-2.048l0.896,1.473
		c-1.664,1.312-4.384,2.367-7.199,2.367c-6.305,0-8.896-4.512-8.896-8.991c0-2.592,0.769-4.703,2.336-6.399
		c1.568-1.696,3.616-2.528,6.176-2.528c2.305,0,4.191,0.736,5.695,2.24c1.504,1.472,2.272,3.456,2.272,5.983
		C321.433,231.913,321.4,232.425,321.336,233.192z M306.938,231.433h12.512c-0.032-3.808-2.496-6.207-5.984-6.207
		C309.881,225.226,307.322,227.689,306.938,231.433z"/>
	<path fill="#161209" d="M323.801,237.641l1.537-0.96c0.991,1.983,2.495,2.976,4.512,2.976c2.303,0,3.903-1.472,3.903-3.231
		c0-1.12-0.736-2.048-2.176-2.784c-0.384-0.192-1.056-0.48-2.048-0.864c-0.992-0.416-1.664-0.704-2.048-0.928
		c-1.824-0.928-2.72-2.271-2.72-4c0-2.592,2.047-4.543,5.248-4.543c2.335,0,4.063,0.896,5.15,2.688l-1.344,1.088
		c-0.8-1.376-2.08-2.08-3.84-2.08c-2.144,0-3.359,1.152-3.359,2.784c0,1.12,0.607,1.983,1.855,2.592l1.92,0.832
		c0.992,0.416,1.76,0.735,2.272,0.991c1.952,0.929,3.008,2.145,3.008,4.096c0,1.44-0.544,2.624-1.632,3.616
		s-2.496,1.472-4.191,1.472C327.321,241.384,325.049,240.168,323.801,237.641z"/>
	<path fill="#161209" d="M337.945,237.641l1.535-0.96c0.992,1.983,2.496,2.976,4.512,2.976c2.305,0,3.904-1.472,3.904-3.231
		c0-1.12-0.736-2.048-2.176-2.784c-0.385-0.192-1.057-0.48-2.048-0.864c-0.992-0.416-1.664-0.704-2.048-0.928
		c-1.824-0.928-2.721-2.271-2.721-4c0-2.592,2.049-4.543,5.248-4.543c2.336,0,4.064,0.896,5.152,2.688l-1.344,1.088
		c-0.801-1.376-2.08-2.08-3.84-2.08c-2.145,0-3.36,1.152-3.36,2.784c0,1.12,0.608,1.983,1.856,2.592l1.92,0.832
		c0.991,0.416,1.76,0.735,2.271,0.991c1.951,0.929,3.008,2.145,3.008,4.096c0,1.44-0.544,2.624-1.633,3.616
		c-1.088,0.992-2.495,1.472-4.191,1.472C341.465,241.384,339.193,240.168,337.945,237.641z"/>
	<path fill="#161209" d="M362.936,238.888c-1.631-1.695-2.463-3.839-2.463-6.431c0-2.624,0.832-4.768,2.496-6.464
		c1.695-1.696,3.84-2.528,6.432-2.528c3.359,0,6.335,1.696,7.646,4.416l-1.567,0.896c-1.152-2.177-3.487-3.552-6.079-3.552
		c-2.017,0-3.713,0.672-5.024,2.048c-1.312,1.344-1.983,3.071-1.983,5.184c0,2.079,0.64,3.808,1.92,5.151
		c1.279,1.344,2.912,2.016,4.895,2.016c2.593,0,5.057-1.472,6.176-3.552l1.568,0.96c-0.672,1.312-1.729,2.368-3.136,3.168
		s-2.944,1.184-4.608,1.184C366.68,241.384,364.568,240.552,362.936,238.888z"/>
	<path fill="#161209" d="M382.008,226.057c1.695-1.728,3.808-2.592,6.367-2.592c2.561,0,4.672,0.864,6.367,2.592
		c1.696,1.729,2.528,3.84,2.528,6.368c0,2.527-0.832,4.672-2.528,6.399c-1.695,1.728-3.807,2.592-6.367,2.592
		c-2.56,0-4.672-0.864-6.367-2.592s-2.527-3.872-2.527-6.399C379.48,229.896,380.313,227.785,382.008,226.057z M393.367,237.576
		c1.312-1.408,1.983-3.136,1.983-5.151s-0.672-3.744-1.983-5.12c-1.313-1.376-2.977-2.079-4.992-2.079
		c-1.983,0-3.647,0.703-4.991,2.111c-1.312,1.376-1.983,3.072-1.983,5.088s0.672,3.743,1.983,5.151
		c1.344,1.376,3.008,2.08,4.991,2.08C390.391,239.656,392.055,238.952,393.367,237.576z"/>
	<path fill="#161209" d="M402.968,239.496c-1.248-1.312-1.888-3.04-1.888-5.184v-10.432H403v10.399c0,3.296,1.951,5.344,5.055,5.344
		c3.2,0,5.088-2.048,5.088-5.376v-10.367h1.92v10.432c0,4.352-2.656,7.104-7.008,7.104
		C405.943,241.416,404.248,240.776,402.968,239.496z"/>
	<path fill="#161209" d="M420.023,241v-17.119h1.855v3.008c1.024-2.271,3.168-3.455,5.952-3.455c1.92,0,3.52,0.64,4.831,1.888
		c1.313,1.248,1.952,3.04,1.952,5.344V241h-1.92v-9.983c0-3.584-1.919-5.791-5.087-5.791c-1.504,0-2.816,0.512-3.969,1.567
		c-1.119,1.024-1.695,2.56-1.695,4.607v9.6H420.023z"/>
	<path fill="#161209" d="M440.951,238.888c-1.632-1.695-2.464-3.839-2.464-6.431c0-2.624,0.832-4.768,2.496-6.464
		c1.696-1.696,3.84-2.528,6.432-2.528c3.359,0,6.335,1.696,7.647,4.416l-1.568,0.896c-1.152-2.177-3.487-3.552-6.079-3.552
		c-2.017,0-3.712,0.672-5.024,2.048c-1.312,1.344-1.983,3.071-1.983,5.184c0,2.079,0.64,3.808,1.92,5.151s2.912,2.016,4.896,2.016
		c2.592,0,5.056-1.472,6.176-3.552l1.568,0.96c-0.672,1.312-1.729,2.368-3.137,3.168c-1.407,0.8-2.943,1.184-4.607,1.184
		C444.695,241.384,442.583,240.552,440.951,238.888z"/>
	<path fill="#161209" d="M457.879,219.562c0-0.928,0.736-1.632,1.664-1.632c0.896,0,1.632,0.704,1.632,1.632
		s-0.735,1.632-1.632,1.632C458.615,221.193,457.879,220.489,457.879,219.562z M460.439,241h-1.92v-17.119h1.92V241z"/>
	<path fill="#161209" d="M467.703,241h-1.92v-24.158h1.92V241z"/>
</g>
<line fill="none" stroke="#000000" stroke-miterlimit="10" x1="36.619" y1="197" x2="466.662" y2="197"/>
</svg>
