<?xml version="1.0" encoding="utf-8"?>
<!-- Generator: Adobe Illustrator 16.0.0, SVG Export Plug-In . SVG Version: 6.00 Build 0)  -->
<!DOCTYPE svg PUBLIC "-//W3C//DTD SVG 1.1//EN" "http://www.w3.org/Graphics/SVG/1.1/DTD/svg11.dtd">
<svg version="1.1" xmlns="http://www.w3.org/2000/svg" xmlns:xlink="http://www.w3.org/1999/xlink" x="0px" y="0px" width="283px"
	 height="95px" viewBox="0 0 283 95" enable-background="new 0 0 283 95" xml:space="preserve">
<g id="Calque_1" display="none">
	<text transform="matrix(1 0 0 1 14 47.7305)" display="inline" font-family="'Alegreya-Regular'" font-size="59">Alliance</text>
	<path display="inline" d="M8.22,30.33c-3.423-0.295-4.721-1.239-5.665-4.189c-0.651-1.957-1.315-4.025-1.973-6.128
		c-0.069,0.146-0.143,0.293-0.228,0.441c-0.809,1.396-1.916,2.549-3.202,3.488l0.505,1.667c0.354,1.121,0.531,2.065,0.531,2.833
		c0,1.416-1.18,1.947-5.252,2.242L-7.3,32.985l0.178,0.413c0,0,4.248-0.59,8.791-0.59c2.007,0,6.256,0.177,6.256,0.177l0.412-2.419
		L8.22,30.33z"/>
	<line display="inline" fill="none" stroke="#C9920A" stroke-miterlimit="10" x1="11" y1="57.73" x2="277" y2="57.73"/>
	<text transform="matrix(1 0 0 1 15 83)" display="inline" font-family="'Lane-Narrow'" font-size="29">Business council</text>
</g>
<g id="Calque_2" display="none">
</g>
<g id="logo_final">
	<path d="M48.754,45.252l0.119,0.236l-0.414,2.419c0,0-4.248-0.177-6.254-0.177c-4.544,0-8.792,0.59-8.792,0.59l-0.177-0.413
		l0.235-2.301c4.071-0.295,5.252-0.826,5.252-2.242c0-0.767-0.177-1.711-0.531-2.833L36.245,34.1
		c-1.416-0.059-4.484-0.059-6.137-0.059c-2.302,0-5.074,0.295-6.432,0.472l-2.183,6.137c-0.354,1.062-0.531,1.77-0.531,2.301
		c0,1.711,1.063,2.419,3.54,2.419h3.363l0.118,0.236l-0.354,2.537c0,0-4.309-0.413-8.202-0.413c-2.833,0-6.491,0.177-6.491,0.177
		l0.473-2.773c2.184-0.236,3.305-1.239,4.602-4.543l11.507-30.152l3.718-1.003h0.472c0,0,4.956,18.351,9.382,31.627
		C44.033,44.013,45.332,44.957,48.754,45.252z M24.739,31.622h5.192c1.594,0,4.131-0.177,5.487-0.295l-4.661-15.459h-0.413
		L24.739,31.622z"/>
	<path d="M52.113,48.32l0.354-2.714c3.068-0.472,4.014-1.593,4.014-4.957l0.059-24.783c0-2.537-0.413-3.186-2.184-3.186
		c-0.708,0-2.006,0.118-2.006,0.118l-0.118-0.236l0.413-2.596c0,0,4.366,0.177,6.608,0.177c2.538,0,6.313-0.531,6.313-0.531
		l-0.236,2.655c-3.953,0.531-3.599,1.534-3.894,5.487c-0.531,7.376-0.708,17.407-0.708,22.776c0,4.012,0.59,4.543,5.016,4.543
		c6.844,0,8.084-1.121,9.381-8.379l2.598-0.295l0.176,0.295c0,0-1.062,5.37-1.711,11.211l-0.295,0.354
		c0,0-10.267-0.531-15.873-0.531C55.595,47.73,52.113,48.32,52.113,48.32z"/>
	<path d="M82.025,48.32l0.354-2.714c3.068-0.472,4.014-1.593,4.014-4.957l0.059-24.783c0-2.537-0.413-3.186-2.184-3.186
		c-0.708,0-2.006,0.118-2.006,0.118l-0.118-0.236l0.413-2.596c0,0,4.366,0.177,6.608,0.177c2.538,0,6.313-0.531,6.313-0.531
		l-0.236,2.655c-3.953,0.531-3.599,1.534-3.894,5.487c-0.531,7.376-0.708,17.407-0.708,22.776c0,4.012,0.59,4.543,5.016,4.543
		c6.844,0,8.084-1.121,9.381-8.379l2.598-0.295l0.176,0.295c0,0-1.062,5.37-1.711,11.211l-0.295,0.354
		c0,0-10.267-0.531-15.873-0.531C85.507,47.73,82.025,48.32,82.025,48.32z"/>
	<path d="M120.493,41.122c0,3.186,0.531,4.012,2.597,4.012c1.416,0,3.127-0.177,3.127-0.177l0.118,0.236l-0.531,2.714
		c0,0-4.956-0.177-7.729-0.177c-3.01,0-6.845,0.708-6.845,0.708l0.354-2.714c3.717-0.708,4.72-1.77,4.72-5.074l0.06-24.783
		c0-2.478-0.413-3.186-2.184-3.186c-0.885,0-2.479,0.118-2.479,0.118l-0.117-0.236l0.412-2.596c0,0,4.604,0.177,7.022,0.177
		c2.714,0,6.785-0.531,6.785-0.531l-0.235,2.655c-3.305,0.413-4.131,1.121-4.249,3.363
		C120.906,24.187,120.493,36.224,120.493,41.122z"/>
	<path d="M196.133,39.175V15.277c0-1.711-0.649-2.537-1.947-2.537c-1.063,0-2.242,0.059-2.242,0.059l-0.118-0.236l0.531-2.655
		c0,0,3.599,0.236,5.605,0.236c2.478,0,5.841-0.472,5.841-0.472l-0.295,2.714c-2.714,0.354-3.953,1.416-4.012,3.717l-0.826,33.161
		l-1.712,0.826c-11.506-17.938-21.949-32.512-21.949-32.512h-0.296l-0.295,25.195c0,1.77,0.473,2.36,1.829,2.36
		c0.591,0,3.01-0.059,3.01-0.059l0.118,0.236l-0.531,2.655c0,0-3.718-0.236-6.255-0.236c-2.36,0-5.487,0.472-5.487,0.472
		l0.295-2.714c2.419-0.295,3.6-1.298,3.658-3.717l0.768-25.786c0-2.419-1.181-3.245-5.134-3.658l-0.177-0.295l0.472-2.184
		c0,0,3.423,0.295,5.074,0.295c1.947,0,3.954-0.236,3.954-0.236c9.795,15.224,19.825,29.267,19.825,29.267H196.133z"/>
	<path d="M208.106,30.206c0-11.978,8.674-20.77,20.593-20.77c4.897,0,10.268,1.417,10.268,1.417l0.235,0.354
		c0,0-1.121,4.425-1.475,9.854l-2.833,0.236c0,0,0.178-1.593,0.178-2.891c0-3.659-2.892-5.488-8.674-5.488
		c-7.907,0-12.981,5.959-12.981,15.342c0,10.385,5.369,17.229,13.512,17.229c5.37,0,8.557-2.95,10.031-9.323l2.832-0.236
		c0,0-1.18,5.37-1.593,9.618l-0.354,0.531c0,0-5.075,2.36-12.097,2.36C215.01,48.438,208.106,41.358,208.106,30.206z"/>
	<path d="M260.087,45.075c9.323,0,10.444-0.708,11.389-7.199l2.596-0.295l0.177,0.295c0,0-1.062,4.897-1.593,9.913l-0.295,0.354
		c0,0-12.273-0.413-17.879-0.413c-4.484,0-8.202,0.59-8.202,0.59l0.354-2.714c3.54-0.472,4.603-1.593,4.603-4.957l0.059-24.783
		c0-2.537-0.413-3.186-2.183-3.186c-0.708,0-2.007,0.118-2.007,0.118l-0.117-0.236l0.412-2.596c0,0,4.662,0.177,8.202,0.177
		c9.382,0,13.808-0.177,17.702-0.708l0.177,0.354c0,0-1.003,4.367-1.357,9.795l-2.832,0.236c0,0,0.118-1.711,0.118-2.537
		c0-3.835-0.708-4.189-9.028-4.189c-3.835,0-4.071,0.118-4.13,2.301l-0.473,11.447c1.299,0,4.308,0.059,6.078,0.059
		c2.124,0,7.198-0.649,7.198-0.649l0.236,0.295l-0.826,3.481c0,0-5.074-0.177-8.261-0.177c-1.771,0-3.54,0.236-4.543,0.413
		c-0.178,6.373-0.236,9.323-0.236,11.27C255.426,44.721,255.839,45.075,260.087,45.075z"/>
	<g>
		<path d="M16.378,62.148h5.713c2.591,0,4.389,0.301,5.394,0.899c1.489,0.87,2.233,2.291,2.233,4.263
			c0,2.34-1.189,3.926-3.567,4.757c3.093,0.599,4.64,2.388,4.64,5.364c0,2.05-0.793,3.567-2.378,4.554
			C27.292,82.662,25.397,83,22.729,83h-6.351V62.148z M22.207,71.777c4.35,0,6.525-1.509,6.525-4.524
			c0-1.759-0.706-2.958-2.117-3.596c-0.928-0.425-2.417-0.638-4.466-0.638h-4.785v8.758H22.207z M22.526,82.13
			c2.281,0,3.847-0.174,4.698-0.521c1.701-0.696,2.552-2.146,2.552-4.351c0-1.895-0.783-3.209-2.349-3.943
			c-1.102-0.522-2.726-0.783-4.872-0.783h-5.191v9.599H22.526z"/>
		<path d="M35.112,62.148v13.108c0,4.892,2.185,7.337,6.554,7.337c2.223,0,3.896-0.676,5.017-2.029
			c1.024-1.257,1.537-3.026,1.537-5.308V62.148h0.957v13.572c0,2.417-0.648,4.303-1.943,5.655c-1.334,1.373-3.19,2.059-5.568,2.059
			c-2.397,0-4.253-0.686-5.568-2.059c-1.295-1.314-1.943-3.199-1.943-5.655V62.148H35.112z"/>
		<path d="M53.643,76.649c0.116,1.817,0.71,3.262,1.783,4.335c1.073,1.073,2.538,1.609,4.394,1.609c1.624,0,2.977-0.405,4.06-1.218
			c1.237-0.889,1.856-2.107,1.856-3.654c0-1.604-0.648-2.813-1.943-3.625c-0.638-0.425-2.03-0.928-4.176-1.508
			c-0.02-0.019-0.145-0.058-0.377-0.116c-2.397-0.676-3.915-1.305-4.553-1.885c-0.986-0.889-1.479-2.039-1.479-3.451
			c0-1.778,0.618-3.141,1.856-4.089c1.141-0.908,2.61-1.362,4.408-1.362c1.953,0,3.519,0.531,4.698,1.594
			c1.218,1.064,1.875,2.572,1.972,4.524h-0.928c-0.039-1.682-0.609-2.996-1.711-3.944c-1.063-0.908-2.427-1.362-4.089-1.362
			c-1.547,0-2.794,0.387-3.741,1.16c-1.025,0.812-1.537,1.972-1.537,3.479c0,1.083,0.425,2.021,1.276,2.813
			c0.638,0.58,2.011,1.141,4.118,1.682c0.039,0.02,0.092,0.034,0.16,0.044c0.067,0.01,0.149,0.034,0.247,0.072
			c2.223,0.6,3.75,1.16,4.582,1.682c1.469,0.948,2.204,2.291,2.204,4.031c0,1.934-0.687,3.441-2.059,4.524
			c-1.257,0.967-2.881,1.449-4.872,1.449c-2.107,0-3.78-0.608-5.017-1.826c-1.257-1.18-1.953-2.832-2.088-4.959H53.643z"/>
		<path d="M70.521,62.148h0.957V83h-0.957V62.148z"/>
		<path d="M76.378,62.148h0.986l13.079,19.198V62.148H91.4V83h-0.957L77.335,63.831V83h-0.957V62.148z"/>
		<path d="M96.156,62.148h12.731v0.929H97.142v8.613h9.309v0.898h-9.309v9.483h12.035V83H96.156V62.148z"/>
		<path d="M112.483,76.649c0.116,1.817,0.71,3.262,1.783,4.335c1.073,1.073,2.538,1.609,4.394,1.609c1.624,0,2.977-0.405,4.06-1.218
			c1.237-0.889,1.856-2.107,1.856-3.654c0-1.604-0.648-2.813-1.943-3.625c-0.638-0.425-2.03-0.928-4.176-1.508
			c-0.02-0.019-0.145-0.058-0.377-0.116c-2.397-0.676-3.915-1.305-4.553-1.885c-0.986-0.889-1.479-2.039-1.479-3.451
			c0-1.778,0.618-3.141,1.856-4.089c1.141-0.908,2.61-1.362,4.408-1.362c1.953,0,3.519,0.531,4.698,1.594
			c1.218,1.064,1.875,2.572,1.972,4.524h-0.928c-0.039-1.682-0.609-2.996-1.711-3.944c-1.063-0.908-2.427-1.362-4.089-1.362
			c-1.547,0-2.794,0.387-3.741,1.16c-1.025,0.812-1.537,1.972-1.537,3.479c0,1.083,0.425,2.021,1.276,2.813
			c0.638,0.58,2.011,1.141,4.118,1.682c0.039,0.02,0.092,0.034,0.16,0.044c0.067,0.01,0.149,0.034,0.247,0.072
			c2.223,0.6,3.75,1.16,4.582,1.682c1.469,0.948,2.204,2.291,2.204,4.031c0,1.934-0.687,3.441-2.059,4.524
			c-1.257,0.967-2.881,1.449-4.872,1.449c-2.107,0-3.78-0.608-5.017-1.826c-1.257-1.18-1.953-2.832-2.088-4.959H112.483z"/>
		<path d="M129.65,76.649c0.116,1.817,0.71,3.262,1.783,4.335c1.073,1.073,2.538,1.609,4.394,1.609c1.624,0,2.977-0.405,4.06-1.218
			c1.237-0.889,1.856-2.107,1.856-3.654c0-1.604-0.648-2.813-1.943-3.625c-0.638-0.425-2.03-0.928-4.176-1.508
			c-0.02-0.019-0.145-0.058-0.377-0.116c-2.397-0.676-3.915-1.305-4.553-1.885c-0.986-0.889-1.479-2.039-1.479-3.451
			c0-1.778,0.618-3.141,1.856-4.089c1.141-0.908,2.61-1.362,4.408-1.362c1.953,0,3.519,0.531,4.698,1.594
			c1.218,1.064,1.875,2.572,1.972,4.524h-0.928c-0.039-1.682-0.609-2.996-1.711-3.944c-1.063-0.908-2.427-1.362-4.089-1.362
			c-1.547,0-2.794,0.387-3.741,1.16c-1.025,0.812-1.537,1.972-1.537,3.479c0,1.083,0.425,2.021,1.276,2.813
			c0.638,0.58,2.011,1.141,4.118,1.682c0.039,0.02,0.092,0.034,0.16,0.044c0.067,0.01,0.149,0.034,0.247,0.072
			c2.223,0.6,3.75,1.16,4.582,1.682c1.469,0.948,2.204,2.291,2.204,4.031c0,1.934-0.687,3.441-2.059,4.524
			c-1.257,0.967-2.881,1.449-4.872,1.449c-2.107,0-3.78-0.608-5.017-1.826c-1.257-1.18-1.953-2.832-2.088-4.959H129.65z"/>
		<path d="M167.321,81.521c-1.432,1.257-3.307,1.885-5.626,1.885c-2.978,0-5.221-1.092-6.729-3.277
			c-1.295-1.875-1.943-4.379-1.943-7.511s0.668-5.674,2.002-7.627c1.526-2.204,3.808-3.306,6.844-3.306
			c2.068,0,3.817,0.57,5.249,1.711c1.024,0.812,1.749,1.808,2.175,2.986l-0.899,0.464c-0.947-2.86-3.18-4.292-6.698-4.292
			c-2.61,0-4.593,1.073-5.945,3.219c-1.141,1.818-1.711,4.1-1.711,6.845c0,2.765,0.551,5.026,1.653,6.786
			c1.314,2.127,3.267,3.189,5.857,3.189c2.088,0,3.779-0.561,5.075-1.682c1.005-0.87,1.672-1.991,2.001-3.364l0.841,0.436
			C169.1,79.395,168.384,80.574,167.321,81.521z"/>
		<path d="M174.977,64.934c1.624-2.166,3.974-3.248,7.048-3.248c3.093,0,5.451,1.072,7.075,3.219
			c1.45,1.953,2.176,4.515,2.176,7.685c0,3.19-0.726,5.742-2.176,7.656c-1.624,2.127-3.982,3.189-7.075,3.189
			c-3.094,0-5.443-1.063-7.048-3.189c-1.449-1.914-2.175-4.466-2.175-7.656C172.802,69.438,173.527,66.886,174.977,64.934z
			 M175.702,79.578c1.431,2.011,3.538,3.016,6.322,3.016c2.803,0,4.92-1.005,6.351-3.016c1.257-1.759,1.885-4.089,1.885-6.989
			c0-2.881-0.638-5.21-1.914-6.989c-1.45-2.029-3.558-3.045-6.321-3.045c-2.766,0-4.872,1.016-6.322,3.045
			c-1.257,1.779-1.885,4.108-1.885,6.989S174.445,77.8,175.702,79.578z"/>
		<path d="M195.974,62.148v13.108c0,4.892,2.185,7.337,6.554,7.337c2.223,0,3.896-0.676,5.017-2.029
			c1.024-1.257,1.537-3.026,1.537-5.308V62.148h0.957v13.572c0,2.417-0.647,4.303-1.943,5.655c-1.334,1.373-3.189,2.059-5.567,2.059
			c-2.397,0-4.254-0.686-5.568-2.059c-1.295-1.314-1.942-3.199-1.942-5.655V62.148H195.974z"/>
		<path d="M214.62,62.148h0.986l13.079,19.198V62.148h0.957V83h-0.957l-13.108-19.169V83h-0.957V62.148z"/>
		<path d="M247.796,81.521c-1.432,1.257-3.307,1.885-5.626,1.885c-2.978,0-5.221-1.092-6.729-3.277
			c-1.295-1.875-1.943-4.379-1.943-7.511s0.668-5.674,2.002-7.627c1.526-2.204,3.808-3.306,6.844-3.306
			c2.068,0,3.817,0.57,5.249,1.711c1.024,0.812,1.749,1.808,2.175,2.986l-0.899,0.464c-0.947-2.86-3.18-4.292-6.698-4.292
			c-2.61,0-4.593,1.073-5.945,3.219c-1.141,1.818-1.711,4.1-1.711,6.845c0,2.765,0.551,5.026,1.653,6.786
			c1.314,2.127,3.267,3.189,5.857,3.189c2.088,0,3.779-0.561,5.075-1.682c1.005-0.87,1.672-1.991,2.001-3.364l0.841,0.436
			C249.574,79.395,248.858,80.574,247.796,81.521z"/>
		<path d="M254.292,62.148h0.957V83h-0.957V62.148z"/>
		<path d="M260.179,62.148h0.985v19.924h11.05V83h-12.035V62.148z"/>
	</g>
	<text transform="matrix(1 0 0 1 14 83)" display="none" font-family="'Lane-Narrow'" font-size="29">Business council</text>
	<path d="M142.332,45.37c-2.555,0-3.648-0.708-3.648-2.419c0-0.531,0.182-1.239,0.547-2.301l1.078-2.943
		c-0.158-0.046-0.321-0.088-0.479-0.136c-1.045-0.314-1.838-0.841-2.414-1.49l-1.774,4.51c-1.338,3.304-2.493,4.308-4.743,4.543
		l-0.487,2.773c0,0,3.771-0.177,6.69-0.177c4.014,0,8.453,0.413,8.453,0.413l0.365-2.537l-0.121-0.236H142.332z"/>
	<path d="M162.479,45.252c-2.825-0.295-3.897-1.239-4.675-4.189c-0.583-2.113-1.259-4.711-1.259-4.711
		c-1.044,0.776-1.893,1.45-3.167,1.565c0,0,0.818,4.681,0.818,5.448c0,1.416-0.974,1.947-4.338,2.242l-0.194,2.301l0.146,0.413
		c0,0,3.508-0.59,7.26-0.59c1.657,0,5.166,0.177,5.166,0.177l0.341-2.419L162.479,45.252z"/>
	<path fill="#C9920A" d="M150.653,9.436h-0.53l-4.179,1.003l-7.435,23.362c0,2.209,4.731,4,9.182,4c3.963,0,7.25-1.422,7.924-3.294
		C155.657,34.509,150.653,9.436,150.653,9.436z M146.873,15.867h0.465l5.239,15.459c-1.525,0.118-4.377,0.295-6.168,0.295h-5.837
		L146.873,15.867z"/>
	<line fill="none" stroke="#C9920A" stroke-miterlimit="10" x1="11" y1="56.73" x2="277" y2="56.73"/>
</g>
</svg>
